if (_typeface_js && _typeface_js.loadFace) _typeface_js.loadFace({"glyphs":{"0":{"ha":338,"x_min":-14,"x_max":311,"o":"m 309 387 q 304 320 311 356 q 286 245 298 283 q 247 153 271 198 q 193 74 223 109 q 135 24 165 43 q 69 5 104 5 q 45 8 57 5 q 1 50 15 18 q -9 82 -6 64 q -13 119 -12 100 q -7 190 -14 152 q 12 267 -1 228 q 48 356 26 313 q 98 433 70 399 q 152 480 123 463 q 213 500 181 498 q 247 496 232 500 q 274 480 262 490 q 293 455 286 470 q 304 424 300 441 q 309 387 308 407 m 259 254 q 276 323 271 290 q 281 387 282 357 q 276 417 279 403 q 268 441 273 431 q 238 469 257 463 q 227 471 233 470 q 214 471 221 472 q 165 455 189 470 q 120 414 142 439 q 73 342 94 383 q 39 258 52 302 q 21 186 27 222 q 16 120 15 151 q 19 88 16 102 q 26 62 21 73 q 54 35 36 41 q 69 33 60 33 q 122 50 96 34 q 172 93 148 66 q 222 167 200 125 q 259 254 245 210 "},"1":{"ha":231,"x_min":0,"x_max":243,"o":"m 239 484 q 243 475 243 479 q 239 464 242 471 l 236 455 l 69 15 q 61 7 67 9 q 50 6 56 4 q 42 14 45 8 q 42 25 40 20 l 182 395 q 148 354 165 374 q 113 318 131 334 q 77 293 95 302 q 43 283 60 283 q 31 283 37 283 q 22 286 26 284 q 6 298 13 290 q 5 299 6 298 q 0 318 0 308 q 5 345 0 332 q 13 352 7 350 q 24 352 18 355 q 32 345 29 350 q 32 334 34 339 q 28 319 28 325 q 30 315 28 317 l 30 314 q 33 313 30 314 q 42 311 37 311 q 74 323 57 312 q 109 353 91 335 q 145 394 127 372 q 181 439 163 416 q 194 455 188 448 q 206 471 201 463 q 210 476 208 473 q 214 480 212 478 l 214 481 q 219 486 218 486 q 220 487 219 487 q 239 485 231 495 l 239 484 l 239 484 "},"2":{"ha":309,"x_min":-62,"x_max":294,"o":"m 271 465 q 289 435 284 451 q 294 402 294 418 q 285 353 293 377 q 262 306 277 330 q 231 260 249 283 q 193 215 214 238 q 132 152 163 182 q 69 98 100 122 q 41 75 54 85 q 16 55 27 64 q 58 60 38 58 q 98 60 78 62 q 157 53 127 59 q 225 37 186 47 q 234 31 231 36 q 235 20 237 26 q 229 11 234 14 q 218 9 224 8 q 152 25 181 19 q 96 32 123 31 q 40 30 69 33 q -27 17 11 26 q -33 16 -31 16 q -37 15 -36 15 q -52 13 -47 12 q -60 22 -57 13 l -60 24 q -60 35 -62 31 q -50 43 -57 38 l -50 43 q -46 46 -48 45 q -41 50 -43 47 q -2 77 -26 59 q 51 120 22 96 q 112 173 81 144 q 172 234 143 201 q 208 277 191 256 q 238 320 225 298 q 257 361 250 341 q 265 403 264 382 q 262 425 266 414 q 250 445 259 436 q 232 457 243 452 q 203 465 220 463 q 169 462 184 467 q 142 448 154 457 q 116 419 126 436 q 100 381 106 401 q 93 373 98 376 q 82 372 87 370 q 72 390 68 376 q 92 435 79 414 q 124 470 105 456 q 161 490 140 484 q 207 493 182 496 q 245 483 229 490 q 271 465 260 475 "},"3":{"ha":302,"x_min":-28,"x_max":279,"o":"m 261 452 q 275 421 271 437 q 277 387 279 404 q 275 380 277 384 q 251 326 270 347 q 208 289 233 304 q 183 276 196 281 q 157 266 170 271 q 187 256 174 262 q 212 239 201 249 q 236 208 227 226 q 245 165 245 189 q 245 158 245 162 q 245 151 245 155 q 228 92 241 118 q 193 48 214 66 q 139 17 169 27 q 81 6 110 6 l 80 6 l 77 6 q 37 13 56 7 q 4 31 18 19 q -19 61 -11 43 q -28 104 -28 79 l -28 106 q -21 140 -28 123 q -3 166 -15 155 q 7 170 1 170 q 18 165 14 170 q 21 155 21 161 q 16 145 21 149 q 10 138 13 142 q 5 129 7 134 q 2 118 3 123 q 1 106 1 112 l 1 103 q 22 53 1 71 q 47 40 33 44 q 77 35 61 35 l 81 35 q 130 43 105 35 q 174 70 154 52 q 202 106 191 85 q 216 154 214 127 q 217 159 216 157 q 216 165 217 162 q 210 195 216 182 q 193 218 204 208 q 165 234 182 228 q 127 242 148 240 q 116 243 121 243 q 103 243 110 243 q 89 248 95 243 q 83 255 85 251 q 83 258 83 256 q 85 270 82 264 l 85 269 q 100 278 90 276 q 147 293 122 284 q 193 314 172 301 q 228 343 213 326 q 248 385 243 360 q 248 387 248 386 q 248 389 248 388 q 237 436 252 416 q 219 453 231 446 q 193 463 208 460 l 192 463 q 189 464 191 464 q 185 465 187 464 q 151 462 166 467 q 123 448 136 457 q 98 419 108 436 q 81 381 87 401 q 63 372 77 368 q 54 390 50 376 q 74 435 61 414 q 106 470 87 456 q 143 490 122 484 q 189 493 163 496 q 193 492 191 492 q 197 492 195 492 l 198 492 q 236 477 220 488 q 261 452 252 467 "},"4":{"ha":317,"x_min":-31,"x_max":319,"o":"m 309 492 q 317 484 314 490 q 317 473 319 479 l 224 205 q 243 211 237 207 q 254 213 248 214 q 262 207 259 212 q 265 196 266 202 q 258 187 264 191 q 214 175 245 178 l 159 16 q 151 8 157 11 q 140 7 146 5 q 133 15 135 9 q 132 26 130 20 l 182 172 q 117 172 152 171 q 51 174 83 173 q 14 176 31 175 q -16 176 -3 176 q -26 180 -21 176 q -31 190 -31 184 q -26 200 -31 196 q 36 271 9 239 q 85 336 63 304 q 125 403 106 369 q 162 480 143 437 q 170 488 165 486 q 181 487 176 490 q 189 479 186 484 q 189 468 191 473 q 150 390 169 425 q 109 320 131 354 q 67 264 90 292 q 16 204 45 236 q 33 204 24 204 q 52 203 42 203 q 125 200 87 201 q 193 201 163 199 l 290 483 q 298 491 292 488 q 309 492 303 494 "},"5":{"ha":315,"x_min":-29,"x_max":339,"o":"m 336 485 q 337 474 339 479 q 330 465 336 468 q 280 446 304 452 q 233 439 256 439 q 189 441 211 437 q 143 450 167 444 q 137 452 140 451 q 134 453 135 452 q 134 452 131 454 q 136 447 138 450 l 90 315 q 112 326 100 321 q 136 336 124 332 q 197 347 169 348 q 227 342 213 347 q 252 326 241 337 q 266 302 260 316 q 272 269 271 288 q 273 259 273 266 q 257 180 272 222 q 217 100 243 137 q 155 35 191 61 q 75 7 119 9 l 67 7 q 16 18 38 7 q -18 50 -7 28 q -29 97 -29 69 q -7 180 -29 135 q 1 187 -4 185 q 12 186 7 189 q 20 178 18 184 q 19 168 22 173 q -1 96 -1 127 q 7 64 -1 77 q 28 43 14 51 q 67 35 43 35 l 74 35 q 140 60 110 37 q 194 116 171 83 q 230 188 217 150 q 243 259 243 227 q 244 263 244 261 q 243 267 243 265 q 231 306 243 293 q 197 319 218 319 q 172 317 185 319 q 146 309 159 314 q 87 279 113 298 q 81 275 83 277 q 77 271 79 273 q 67 265 71 267 q 56 267 63 263 q 47 277 47 271 q 52 294 47 282 l 52 294 l 54 301 l 109 456 q 117 475 113 469 q 123 483 120 481 q 132 484 127 485 q 143 480 136 483 q 146 479 144 479 q 150 478 148 478 q 192 469 172 473 q 233 467 212 466 q 273 473 252 468 q 317 491 294 479 q 328 492 323 494 q 336 485 334 490 "},"6":{"ha":326,"x_min":-38,"x_max":327,"o":"m 326 435 q 324 424 327 429 q 315 417 321 418 q 304 419 310 416 q 298 427 299 422 q 291 445 295 437 q 279 458 287 452 q 245 471 267 469 l 243 471 l 237 471 q 168 439 201 471 q 106 361 134 408 q 87 326 96 344 q 71 288 78 308 q 123 313 94 304 q 184 320 151 322 l 188 320 l 189 320 q 228 307 212 317 q 254 279 243 296 q 267 244 263 264 q 269 205 271 225 q 269 201 269 203 q 269 197 269 199 q 250 124 264 157 q 214 66 235 91 q 160 21 190 37 q 102 4 130 5 l 101 4 l 99 4 l 98 4 q 63 9 80 3 q 34 29 47 16 q 5 110 8 56 q 5 116 5 114 q 5 133 5 125 q 6 151 5 142 q 8 170 7 161 q 12 189 9 180 q 0 172 5 180 q -10 156 -5 164 q -19 149 -14 151 q -30 151 -24 148 q -37 160 -35 155 q -35 171 -38 165 q -8 212 -23 191 q 27 253 7 233 q 51 316 37 286 q 81 376 64 347 q 115 425 97 402 q 153 464 133 447 q 193 490 172 480 q 236 500 214 499 q 241 500 239 500 q 246 500 243 500 l 248 500 q 298 480 278 497 q 315 460 309 471 q 326 435 322 448 m 182 292 q 118 281 147 294 q 65 249 89 269 q 59 243 62 245 q 52 237 56 241 q 35 149 39 191 q 34 132 34 140 q 34 117 33 124 l 34 111 q 41 74 35 89 q 55 49 46 58 q 98 33 71 33 l 100 33 q 147 47 123 34 q 193 85 172 61 q 224 136 211 107 q 240 200 237 164 q 241 207 240 204 q 239 238 241 223 q 229 264 236 253 q 212 283 222 276 q 186 292 201 290 l 185 292 l 182 292 "},"7":{"ha":300,"x_min":-3,"x_max":351,"o":"m 338 482 q 340 460 351 473 q 337 456 338 458 q 335 453 336 454 l 334 452 q 328 445 331 448 q 322 437 326 441 q 308 422 315 430 q 294 407 301 414 q 270 382 281 394 q 247 357 258 370 q 205 312 225 334 q 168 267 186 290 l 195 267 q 205 262 201 267 q 209 252 209 258 q 205 242 209 246 q 195 238 201 238 l 146 238 q 136 224 140 231 q 125 210 131 217 q 74 123 98 170 q 26 16 50 77 q 18 8 24 11 q 7 8 13 6 q 0 16 2 10 q -1 27 -3 22 q 48 137 23 89 q 102 225 73 184 q 111 238 106 233 l 79 238 q 70 242 74 238 q 65 252 65 246 q 70 262 65 258 q 79 267 74 267 l 132 267 q 177 322 153 295 q 227 377 200 349 q 249 401 237 389 q 273 427 260 413 l 290 444 q 255 441 274 441 q 230 443 242 442 q 205 446 217 444 q 174 453 189 450 q 145 460 159 457 q 123 466 132 464 q 108 469 113 469 q 100 464 104 469 q 81 437 93 457 q 76 428 79 432 q 71 418 74 424 q 66 408 68 414 q 60 396 63 403 q 52 389 57 391 q 41 389 46 387 q 33 397 35 392 q 34 408 31 403 q 40 420 37 414 q 46 432 43 426 q 51 442 49 437 q 56 450 54 447 q 80 484 69 475 q 107 497 93 497 q 127 495 115 498 q 153 488 138 492 q 180 481 165 485 q 210 475 195 477 q 255 471 233 471 q 300 475 279 469 q 304 477 302 476 q 310 479 307 478 q 325 485 317 483 q 338 482 332 486 "},"8":{"ha":329,"x_min":-34,"x_max":311,"o":"m 288 472 q 305 446 300 460 q 311 415 311 431 q 310 408 311 410 q 299 366 309 387 q 273 327 289 345 q 240 298 259 310 q 199 281 220 286 q 188 284 193 280 q 182 293 183 288 q 184 303 180 298 q 193 310 187 309 q 225 323 210 313 q 252 346 241 332 q 273 377 265 360 q 281 410 280 393 l 281 415 q 268 452 281 438 q 216 471 251 468 q 209 471 212 471 q 202 471 205 471 q 159 464 180 471 q 121 444 138 457 q 97 415 106 431 q 85 378 87 398 q 89 342 83 357 q 104 315 94 327 q 128 295 115 304 q 156 279 142 287 q 177 267 167 273 q 197 253 187 260 q 238 208 224 233 q 249 180 245 194 q 252 152 252 166 q 237 95 252 123 q 195 47 222 68 q 139 17 172 28 q 69 5 107 5 q 61 5 65 5 q 53 6 57 5 q 15 17 31 9 q -12 38 -1 25 q -29 67 -24 51 q -34 100 -34 83 q -34 107 -34 104 q -33 114 -34 111 q -15 176 -29 149 q 20 224 -1 203 q 58 253 37 240 q 104 277 79 266 q 67 317 81 293 q 57 381 53 340 q 72 429 60 408 q 104 466 84 450 q 149 491 123 482 q 202 500 175 500 q 210 500 206 500 q 218 499 214 500 q 259 491 241 498 q 288 472 276 484 m 134 258 q 82 234 106 247 q 40 203 58 221 q 10 163 22 186 q -5 111 -1 141 q -5 105 -5 108 q -5 100 -5 103 q 9 56 -5 73 q 28 42 17 47 q 56 35 40 36 q 62 34 59 34 q 69 34 66 34 q 130 44 102 34 q 178 69 157 54 q 211 108 199 86 q 224 153 223 130 q 213 194 224 174 q 180 230 202 214 q 162 242 172 237 q 142 254 152 248 l 134 258 "},"9":{"ha":333,"x_min":-39,"x_max":326,"o":"m 318 353 q 325 344 323 349 q 323 333 326 338 q 296 293 311 314 q 261 252 281 271 q 257 240 259 246 q 254 229 256 235 q 219 150 239 189 q 174 81 199 112 q 112 26 148 48 q 78 11 96 17 q 43 5 60 5 q 13 8 28 4 q -14 22 -2 13 q -30 43 -24 31 q -38 73 -37 55 q -35 83 -39 79 q -24 87 -31 87 q -14 84 -18 88 q -9 74 -10 80 q -5 57 -9 64 q 4 45 -1 50 q 22 36 12 39 q 42 33 32 33 q 70 39 56 34 q 98 52 84 43 q 127 73 113 60 q 152 99 140 85 q 188 153 172 123 q 218 216 204 183 q 165 191 194 200 q 104 184 137 182 q 100 184 102 184 q 61 197 77 186 q 35 224 45 208 q 21 259 25 240 q 19 299 18 279 q 19 303 19 301 q 20 307 20 304 q 38 380 24 347 q 74 437 53 413 q 128 483 98 467 q 186 500 158 498 l 189 500 q 224 494 208 500 q 254 475 241 488 q 274 442 266 462 q 283 395 281 422 l 283 394 l 283 388 q 277 315 284 353 q 288 332 283 323 q 298 348 293 340 q 307 355 302 353 q 318 353 313 356 m 235 267 q 250 330 245 299 q 254 387 255 361 l 254 393 q 248 430 253 415 q 233 455 242 446 q 214 468 225 464 q 191 471 203 472 l 188 471 q 141 456 165 470 q 96 419 116 443 q 64 369 77 397 q 48 304 52 340 q 48 301 48 302 q 47 298 47 299 q 59 239 45 264 q 76 221 66 229 q 102 213 87 214 l 106 212 q 170 223 140 210 q 223 256 199 235 q 229 261 227 258 q 235 267 232 264 "},"\u0000":{"ha":0,"x_min":0,"x_max":0,"o":""},"\r":{"ha":112,"x_min":0,"x_max":0,"o":""}," ":{"ha":112,"x_min":0,"x_max":0,"o":""},"s":{"ha":261,"x_min":-3,"x_max":224,"o":"m 184 228 q 211 178 199 203 q 224 121 223 152 l 224 121 l 224 120 q 212 67 223 90 q 183 30 201 45 q 143 8 165 15 q 100 0 121 1 l 99 0 q 95 0 97 0 q 92 1 94 1 q 53 11 71 2 q 23 33 36 19 q 4 63 11 46 q -3 99 -3 81 l -3 105 q 6 141 -1 124 q 26 172 13 159 q 54 192 37 185 q 90 200 70 199 q 114 195 102 200 q 136 179 126 189 q 149 158 144 170 q 155 132 154 146 q 151 121 155 125 q 140 117 146 117 q 130 121 134 117 q 126 132 126 125 q 115 160 125 149 q 90 172 104 172 q 66 166 77 172 q 47 153 55 161 q 32 130 37 143 q 26 103 27 117 l 26 99 q 44 52 26 72 q 65 37 53 43 q 94 29 78 31 q 99 28 96 28 l 100 28 q 134 35 117 29 q 165 52 151 40 q 186 80 178 63 q 195 121 195 97 l 195 121 q 184 169 195 146 q 160 214 173 192 q 154 223 157 219 q 149 233 152 228 q 135 218 141 226 q 125 213 131 213 q 115 216 119 212 q 110 225 110 220 q 113 236 109 231 q 135 260 123 249 l 136 261 q 127 290 130 275 q 127 321 124 305 q 132 340 127 330 q 133 340 132 340 q 133 341 133 340 q 144 357 137 350 q 159 367 151 363 q 175 371 167 371 q 199 359 190 370 q 208 336 206 352 q 207 326 208 331 q 205 317 206 321 q 202 307 203 311 q 198 297 200 302 q 185 275 193 285 q 170 255 178 264 q 177 242 173 248 q 184 228 181 235 m 157 285 q 165 296 161 290 q 172 309 169 302 q 175 316 174 313 q 177 323 176 320 q 178 336 179 330 q 177 341 178 340 q 175 342 177 342 q 170 341 174 342 q 164 336 166 338 q 159 328 161 333 l 158 328 q 155 316 155 321 q 157 285 153 300 "},"c":{"ha":249,"x_min":1,"x_max":289,"o":"m 279 161 q 287 153 285 159 q 287 142 289 148 q 244 72 267 99 q 195 28 221 44 q 143 5 170 12 q 91 1 117 -1 l 90 1 l 89 1 q 55 7 71 2 q 27 24 39 13 q 8 53 15 36 q 2 93 1 70 l 2 94 l 2 95 q 11 145 3 119 q 29 197 18 171 q 56 247 41 223 q 87 288 71 271 q 121 312 103 304 q 156 321 138 321 l 157 321 l 159 321 l 159 321 q 181 316 171 321 q 199 303 191 312 q 214 257 214 286 l 214 253 q 208 226 214 240 q 203 213 206 219 q 195 201 199 207 q 186 195 192 196 q 175 197 180 194 q 169 207 170 201 q 172 218 168 212 q 181 235 178 224 q 185 254 185 244 l 185 257 q 177 284 185 276 q 158 293 170 292 l 156 293 q 145 291 151 293 q 133 287 139 290 q 120 279 127 283 q 109 268 114 274 q 80 231 94 252 q 55 185 66 209 q 38 138 45 161 q 31 94 32 115 l 31 92 q 47 45 30 60 q 65 34 54 38 q 90 29 77 30 l 92 29 q 136 34 113 28 q 180 52 159 39 q 223 91 202 66 q 260 154 243 115 q 269 161 263 159 q 279 161 274 163 "},"d":{"ha":292,"x_min":-3,"x_max":332,"o":"m 322 161 q 330 153 328 159 q 330 142 332 148 q 309 100 319 119 q 288 66 298 81 q 244 17 267 34 q 218 5 232 9 q 190 0 204 0 l 189 0 q 153 15 168 0 q 143 33 147 22 q 140 57 140 43 l 140 58 l 140 59 l 140 60 q 100 17 122 34 q 52 1 79 1 q 10 24 24 2 q 0 48 3 35 q -2 79 -3 62 q 2 113 -2 93 q 13 157 6 134 q 30 203 20 180 q 52 248 40 227 q 95 300 71 279 q 148 322 119 321 l 154 322 q 179 315 168 321 q 201 298 191 309 q 205 292 203 295 q 209 286 208 290 q 215 304 212 295 q 222 321 218 313 l 237 364 l 237 365 l 241 376 q 248 397 243 385 q 258 425 252 409 q 265 433 260 431 q 276 433 271 435 q 284 426 281 431 q 284 415 286 420 q 275 390 279 402 q 268 368 271 377 l 264 355 l 263 355 l 249 312 q 220 230 234 271 q 191 146 205 189 q 182 118 186 132 q 175 94 178 105 q 170 74 172 83 q 168 58 168 64 l 168 57 q 175 35 168 41 q 189 28 180 28 l 190 28 q 210 32 198 28 q 228 41 220 35 q 264 81 246 54 q 303 155 283 110 q 311 162 306 160 q 322 161 317 164 m 53 30 q 91 46 73 29 q 124 88 109 62 q 152 143 140 113 q 175 199 165 174 q 183 220 180 210 q 191 238 187 230 q 191 243 191 240 q 179 279 190 267 q 152 293 168 292 q 148 294 151 294 q 110 276 128 293 q 77 233 92 259 q 56 192 65 214 q 40 149 47 170 q 30 110 34 128 q 26 78 26 91 q 34 40 26 52 q 53 30 40 31 "},"e":{"ha":247,"x_min":-1,"x_max":287,"o":"m 277 161 q 285 153 283 159 q 285 142 287 148 q 242 72 265 99 q 193 28 219 44 q 141 5 168 12 q 89 1 115 -1 l 87 1 l 87 1 q 53 7 68 2 q 25 24 37 13 q 6 53 13 36 q 0 93 -1 70 l 0 94 l 0 95 q 3 123 1 109 q 10 152 6 137 q 11 153 10 153 q 11 153 11 153 q 27 197 18 176 q 54 247 39 223 q 85 288 69 271 q 119 312 101 304 q 155 321 136 321 q 191 311 178 321 q 211 283 206 302 q 212 267 213 275 q 209 249 212 258 q 196 223 205 235 q 176 201 188 210 q 147 180 163 189 q 114 164 131 172 q 69 147 90 154 q 36 137 48 140 q 31 115 33 125 q 28 94 29 104 l 28 92 q 45 45 28 60 q 63 34 52 38 q 88 29 75 30 l 90 29 q 134 34 111 28 q 178 52 157 39 q 221 91 200 66 q 258 154 241 115 q 267 161 261 159 q 277 161 272 163 m 53 185 q 50 177 52 181 q 47 170 48 174 q 73 178 58 173 q 102 191 87 183 q 132 205 117 197 q 158 223 146 214 q 182 258 176 237 q 183 277 185 269 q 176 288 181 284 q 155 293 168 293 q 131 287 143 293 q 118 279 125 283 q 106 268 112 274 q 78 231 92 252 q 53 185 64 209 "},"f":{"ha":132,"x_min":-220,"x_max":271,"o":"m 267 493 q 269 482 271 488 q 261 474 267 477 q 250 473 256 471 q 242 481 245 475 q 235 489 239 486 q 224 493 231 492 q 178 471 201 496 q 152 431 165 455 q 125 372 139 407 q 106 321 115 349 l 149 321 q 159 317 155 321 q 163 307 163 313 q 159 297 163 301 q 149 293 155 293 l 95 293 q 72 230 82 259 q 54 182 61 201 l 49 168 l 49 168 q 32 120 41 144 q 13 67 23 96 q -1 26 5 47 q -16 -15 -8 6 q -9 -12 -12 -14 q -2 -9 -5 -11 q 38 12 19 -1 q 76 45 58 25 q 112 91 95 64 q 144 154 129 117 q 152 162 146 159 q 163 161 157 164 q 171 154 168 159 q 171 143 173 149 q 136 76 154 104 q 97 25 117 47 q 55 -12 77 3 q 9 -36 33 -26 q -9 -43 0 -40 q -27 -49 -18 -46 l -35 -73 q -50 -113 -43 -93 q -69 -149 -58 -133 q -98 -179 -81 -168 q -140 -191 -115 -190 q -148 -191 -144 -191 q -155 -191 -151 -191 q -183 -183 -171 -189 q -203 -168 -195 -177 q -216 -148 -212 -159 q -220 -125 -220 -136 l -220 -115 q -209 -79 -218 -93 q -183 -58 -199 -66 q -146 -45 -167 -50 q -102 -36 -126 -40 q -76 -31 -90 -33 q -50 -25 -63 -28 q -32 26 -41 1 q -14 77 -23 51 q 3 124 -6 98 q 22 178 12 149 l 22 178 l 27 191 q 43 235 34 209 q 64 293 53 262 l 20 293 q 10 297 14 293 q 6 307 6 301 q 10 317 6 313 q 20 321 14 321 l 75 321 q 87 352 81 337 q 98 383 93 368 q 157 490 126 455 q 228 522 190 527 q 252 512 241 519 q 267 493 260 506 m -60 -57 q -79 -61 -70 -59 q -98 -64 -88 -62 q -133 -71 -117 -68 q -162 -80 -150 -75 q -183 -95 -175 -86 q -192 -118 -191 -104 l -192 -124 q -182 -149 -191 -139 q -152 -162 -172 -160 q -146 -163 -149 -163 q -140 -163 -144 -163 q -113 -154 -124 -162 q -93 -134 -101 -146 q -76 -101 -83 -119 q -62 -64 -69 -83 l -60 -57 "},"g":{"ha":281,"x_min":-73,"x_max":321,"o":"m 311 161 q 318 154 316 159 q 319 143 321 149 q 283 76 302 104 q 245 25 265 47 q 202 -12 224 3 q 157 -36 180 -26 q 139 -43 148 -40 q 121 -49 130 -46 l 113 -73 q 98 -113 105 -93 q 79 -149 90 -133 q 50 -179 66 -168 q 8 -191 33 -190 q 0 -191 4 -191 q -7 -191 -3 -191 q -35 -183 -23 -189 q -56 -168 -47 -177 q -68 -148 -64 -159 q -73 -125 -72 -136 q -72 -115 -73 -118 q -60 -79 -70 -93 q -35 -58 -50 -66 q 1 -45 -19 -50 q 45 -36 22 -40 q 72 -31 58 -33 q 98 -25 85 -28 q 109 4 104 -10 q 119 33 113 18 q 88 9 104 18 q 52 1 71 0 q 9 24 23 1 q 0 48 3 34 q -3 78 -3 62 q 2 113 -2 92 q 13 156 5 133 q 30 203 20 179 q 52 248 39 227 q 95 300 71 279 q 147 321 119 321 l 153 321 q 179 314 167 320 q 200 298 191 308 q 210 283 206 290 q 215 298 213 291 q 220 311 218 305 l 220 311 l 220 312 q 228 320 222 317 q 239 320 233 323 q 247 313 244 318 q 248 302 250 307 l 247 301 l 247 300 q 236 273 242 289 q 223 238 230 256 q 210 202 216 220 q 197 168 203 184 q 180 120 189 145 q 161 67 171 96 q 146 26 153 47 q 132 -15 140 6 q 139 -12 136 -14 q 146 -9 142 -11 q 186 12 167 -1 q 224 45 205 25 q 260 91 243 64 q 292 154 277 117 q 300 162 294 159 q 311 161 305 164 m 87 -57 q 69 -61 78 -59 q 50 -64 60 -62 q 15 -71 31 -68 q -15 -80 -2 -75 q -35 -95 -27 -86 q -44 -118 -43 -104 l -44 -124 q -35 -149 -43 -139 q -4 -162 -24 -160 q 1 -163 -1 -163 q 7 -163 4 -163 q 35 -154 24 -162 q 55 -134 47 -146 q 72 -101 64 -119 q 85 -64 79 -83 l 87 -57 m 53 29 q 91 45 73 28 q 124 87 109 62 q 152 143 139 113 q 175 199 165 173 q 191 237 184 222 l 191 242 q 178 279 191 265 q 151 292 168 291 q 148 293 150 293 q 110 275 128 292 q 77 233 92 258 q 56 191 65 213 q 40 149 47 170 q 30 109 34 127 q 26 77 26 90 q 33 39 25 52 q 53 29 39 30 "},"h":{"ha":271,"x_min":-39,"x_max":311,"o":"m 301 161 q 309 153 307 159 q 309 142 311 148 l 307 140 q 286 94 298 119 q 259 49 274 70 q 226 14 244 28 q 184 0 208 0 l 184 0 q 160 5 170 0 q 145 20 151 11 q 138 37 140 28 q 136 57 136 47 l 136 59 q 138 81 136 70 q 143 105 140 93 q 151 130 146 117 q 159 155 155 142 q 164 168 162 159 q 180 212 172 186 q 189 258 189 237 q 181 283 189 273 q 153 294 173 294 q 127 283 140 294 q 100 256 113 273 q 65 202 81 233 q 39 144 49 171 l 38 143 q 23 103 31 123 q 10 65 16 83 q -1 33 4 47 q -9 10 -7 19 q -17 2 -12 4 q -28 1 -22 -1 q -36 8 -33 3 q -37 19 -39 14 q -29 41 -34 27 q -17 73 -24 55 q -4 112 -11 91 q 11 153 3 132 l 12 153 l 12 154 q 12 155 12 154 q 27 197 20 176 q 41 235 35 218 q 53 267 47 253 q 61 288 58 281 l 61 289 q 69 311 66 304 q 74 325 71 319 q 82 348 78 337 q 87 365 85 358 l 92 376 q 99 397 95 385 q 109 425 103 409 q 116 433 111 431 q 127 433 121 435 q 135 426 132 431 q 136 415 138 420 q 126 389 131 402 q 119 367 122 376 q 117 361 117 364 q 115 355 116 359 q 100 315 106 329 l 92 290 q 122 314 106 305 q 153 322 137 322 q 203 304 189 322 q 217 258 217 286 q 214 233 217 246 q 208 206 212 219 q 200 180 204 193 q 191 157 195 168 q 189 151 190 154 q 186 144 188 147 q 171 98 177 121 q 166 77 168 87 q 164 58 164 67 l 164 57 q 165 45 164 51 q 169 35 166 39 q 184 28 174 28 l 184 28 q 214 41 200 28 q 240 71 228 53 q 263 111 252 90 q 281 152 273 133 l 282 154 q 290 162 285 159 q 301 161 296 164 "},"i":{"ha":125,"x_min":-11,"x_max":165,"o":"m 111 355 q 94 362 101 355 q 87 378 87 369 q 94 395 87 388 q 111 401 101 401 q 127 395 120 401 q 134 378 134 388 q 127 362 134 369 q 111 355 120 355 m 155 161 q 163 154 161 159 q 163 142 165 148 q 142 98 153 122 q 117 54 131 75 q 81 15 101 31 q 38 0 62 0 l 37 0 q 14 5 24 0 q -1 20 5 11 q -9 37 -7 28 q -11 57 -11 47 l -11 59 q -3 101 -11 75 q 4 127 0 113 q 13 155 7 140 q 18 171 14 160 q 28 197 22 181 q 39 230 33 212 q 52 264 45 247 q 54 271 53 267 q 58 281 56 275 l 69 312 q 76 320 71 317 q 87 321 81 323 q 95 314 92 319 q 96 303 98 309 l 85 271 l 79 254 q 65 216 71 233 q 54 186 59 199 q 46 163 50 174 q 40 146 43 153 q 31 119 35 132 q 24 94 27 106 q 19 74 21 83 q 18 58 18 65 l 18 57 q 19 45 18 51 q 22 35 20 39 q 37 28 27 28 l 38 28 q 67 40 54 28 q 93 69 81 52 q 117 112 106 89 q 136 154 127 134 q 144 162 139 159 q 155 161 150 164 "},"j":{"ha":132,"x_min":-221,"x_max":172,"o":"m 162 162 q 170 155 168 160 q 170 144 172 149 q 135 76 153 105 q 96 26 117 47 q 54 -11 76 4 q 8 -35 32 -26 q -9 -42 -1 -39 q -28 -48 -18 -45 l -36 -72 q -51 -112 -43 -92 q -70 -149 -58 -132 q -99 -178 -82 -167 q -140 -191 -116 -189 q -148 -191 -144 -191 q -155 -190 -152 -191 q -184 -182 -172 -189 q -204 -168 -196 -176 q -216 -147 -212 -158 q -221 -124 -220 -136 l -221 -115 q -209 -79 -219 -92 q -183 -57 -199 -65 q -147 -44 -168 -49 q -103 -35 -127 -39 q -77 -30 -90 -33 q -50 -24 -64 -28 q -33 26 -41 1 q -15 77 -24 52 q 2 125 -7 100 q 22 178 12 151 q 34 212 27 194 q 47 249 41 231 q 61 283 54 267 q 71 311 67 300 l 72 312 l 72 313 q 79 321 74 318 q 90 321 85 323 q 98 313 96 319 q 99 302 101 308 l 98 302 l 98 301 q 87 273 94 290 q 75 239 81 257 q 61 203 68 221 q 48 169 54 184 q 31 121 40 146 q 12 68 22 96 q -2 27 5 47 q -16 -14 -9 7 q -9 -12 -13 -13 q -3 -9 -6 -10 q 38 13 18 0 q 75 45 57 26 q 111 92 94 65 q 144 155 128 118 q 151 162 146 160 q 162 162 157 165 m -61 -56 q -80 -60 -71 -58 q -98 -64 -89 -62 q -134 -71 -117 -67 q -163 -80 -151 -74 q -183 -94 -176 -85 q -193 -117 -191 -103 l -193 -123 q -183 -148 -191 -138 q -153 -161 -172 -159 q -147 -162 -150 -162 q -141 -162 -144 -162 q -113 -153 -125 -161 q -94 -133 -102 -145 q -77 -100 -84 -119 q -63 -63 -70 -82 l -61 -56 m 113 355 q 96 362 103 355 q 89 378 89 369 q 96 395 89 388 q 113 401 103 401 q 129 395 122 401 q 136 378 136 388 q 129 362 136 369 q 113 355 122 355 "},"k":{"ha":270,"x_min":-37,"x_max":310,"o":"m 89 278 q 81 257 86 271 q 70 225 76 243 q 55 186 63 208 q 39 143 47 165 q 25 103 32 123 q 12 65 18 83 q 0 33 5 47 q -8 10 -5 19 q -16 2 -10 4 q -26 1 -21 -1 q -35 8 -32 3 q -35 19 -37 14 q -27 41 -33 27 q -16 73 -22 55 q -2 112 -9 91 q 12 153 5 132 l 13 153 q 28 195 20 174 q 42 235 35 216 q 54 267 49 253 q 62 288 59 281 l 62 289 q 70 311 68 304 q 75 325 73 319 q 83 348 79 337 q 89 365 87 358 l 93 376 q 100 397 96 385 q 110 425 104 410 q 117 433 112 431 q 128 433 123 435 q 136 426 134 431 q 137 415 139 420 q 128 390 132 402 q 120 368 123 377 q 118 361 119 364 q 116 355 117 359 q 102 315 107 329 l 90 279 l 89 278 m 300 161 q 308 154 306 159 q 308 142 310 148 q 287 98 298 122 q 261 54 276 75 q 226 15 245 31 q 183 0 207 0 q 163 4 172 0 q 148 14 155 7 q 138 32 141 22 q 133 51 134 41 l 133 52 q 134 74 133 62 q 137 97 136 85 q 139 117 138 107 q 140 137 140 127 q 134 159 140 151 q 111 168 128 168 q 95 163 104 168 q 92 161 94 162 q 88 159 90 160 l 79 150 q 67 146 73 146 l 66 146 q 64 147 66 147 q 64 148 64 147 l 63 148 q 62 149 63 148 q 58 151 60 150 q 55 161 55 155 q 58 171 55 167 q 64 175 61 173 q 70 180 66 178 l 221 319 q 232 322 226 323 q 241 317 237 322 q 245 307 245 313 q 241 298 245 301 l 127 195 q 160 175 151 191 q 169 137 168 159 q 168 116 169 127 q 165 93 166 104 q 162 72 163 82 q 161 54 161 62 l 162 54 q 169 34 162 42 q 183 28 174 28 q 212 40 199 28 q 237 69 226 52 q 262 112 251 89 q 281 154 273 134 q 290 162 284 159 q 300 161 295 164 "},"l":{"ha":142,"x_min":-10,"x_max":182,"o":"m 173 161 q 180 153 178 159 q 180 142 182 148 q 159 100 169 119 q 138 66 149 81 q 94 17 117 34 q 68 5 82 9 q 40 0 55 0 l 39 0 q 20 4 29 0 q 4 15 11 7 q -10 57 -10 31 l -10 58 l -10 59 q -3 101 -10 75 q 5 127 1 113 q 14 155 9 140 q 42 237 27 195 q 72 321 57 279 l 87 365 l 91 376 q 98 397 94 385 q 108 425 102 410 q 115 433 110 431 q 126 434 121 435 q 134 427 132 432 q 135 416 137 421 q 126 390 130 402 q 118 368 121 377 q 116 361 117 364 q 114 355 115 359 l 99 312 q 70 230 85 271 q 41 146 56 189 q 32 118 36 132 q 25 94 28 105 q 20 74 22 83 q 18 58 18 64 l 18 57 q 25 35 18 41 q 39 28 30 28 l 40 28 q 60 32 48 28 q 78 41 70 35 q 96 58 87 47 q 115 81 105 68 q 134 114 124 96 q 153 155 143 132 q 162 162 156 160 q 173 161 168 164 "},"m":{"ha":421,"x_min":-36,"x_max":462,"o":"m 452 161 q 459 153 457 159 q 459 142 462 148 l 458 140 q 437 94 449 119 q 410 49 425 70 q 377 14 395 28 q 336 0 358 0 l 335 0 l 334 0 q 311 5 321 0 q 296 20 302 11 q 288 37 290 28 q 286 57 286 47 l 286 59 q 294 105 288 81 q 302 130 298 117 q 311 155 306 142 q 313 161 312 158 q 315 168 314 164 q 331 212 323 186 q 339 258 339 237 q 332 283 339 273 q 304 294 324 294 q 278 283 291 294 q 251 256 264 273 q 217 205 233 234 q 192 150 202 176 q 182 121 187 137 q 171 89 176 104 q 162 64 167 77 q 155 41 158 52 q 149 23 151 30 q 146 14 146 16 q 138 6 144 9 q 127 5 133 3 q 119 13 122 7 q 119 24 117 18 q 122 32 119 25 q 128 50 124 39 q 136 74 132 61 q 144 98 140 86 l 161 151 q 162 152 161 151 q 162 154 162 153 q 165 161 163 157 q 171 177 168 170 q 174 186 173 184 q 184 221 180 203 q 189 256 189 239 q 184 279 189 271 q 172 291 180 288 q 164 293 168 292 q 155 294 161 294 q 126 279 141 294 q 96 244 111 265 q 66 194 81 220 q 41 143 52 167 q 39 140 41 142 q 10 57 23 94 q -7 9 -3 21 q -14 1 -9 3 q -25 0 -20 -1 q -33 7 -31 2 q -34 18 -36 13 q -27 38 -32 24 q -16 69 -22 51 q -2 110 -9 87 q 15 157 6 133 q 42 232 28 193 q 71 312 56 272 q 78 320 73 317 q 89 321 83 323 q 97 313 94 319 q 98 302 100 308 q 91 283 94 295 q 122 312 106 301 q 155 322 138 322 q 181 318 170 322 q 210 292 201 311 q 218 260 218 277 q 223 268 220 264 q 229 275 226 271 q 264 309 245 296 q 304 322 283 322 q 354 304 340 322 q 368 258 368 286 q 359 205 368 233 q 342 157 350 178 q 339 151 340 154 q 338 144 338 147 q 322 98 328 121 q 317 77 319 87 q 315 58 315 67 l 315 57 l 315 57 q 316 45 315 51 q 320 35 317 39 q 335 28 325 28 l 336 28 q 365 41 351 28 q 391 71 379 53 q 414 111 404 90 q 432 152 424 133 l 433 154 q 441 162 435 159 q 452 161 446 164 "},"n":{"ha":271,"x_min":-38,"x_max":311,"o":"m 301 161 q 309 153 307 159 q 309 142 311 148 l 307 140 q 286 94 298 119 q 259 49 274 70 q 226 14 244 28 q 184 0 208 0 l 184 0 q 161 5 170 0 q 145 20 151 11 q 138 37 140 28 q 136 57 136 47 l 136 59 q 138 81 136 70 q 144 105 140 93 q 151 130 147 117 q 160 155 155 142 q 162 161 161 158 q 165 168 163 164 q 180 212 172 186 q 189 258 189 237 q 181 283 189 273 q 153 294 173 294 q 127 283 140 294 q 100 256 114 273 q 65 202 81 233 q 39 144 49 172 q 8 59 22 96 q -9 10 -5 22 q -16 2 -11 4 q -27 1 -22 -1 q -35 8 -33 3 q -36 19 -38 14 q -19 67 -32 31 q 12 153 -6 104 l 12 154 q 12 155 12 155 q 12 155 12 155 q 13 156 12 156 q 13 157 13 157 q 40 232 26 193 q 68 312 54 272 q 76 320 71 317 q 87 321 81 323 q 95 313 92 319 q 96 302 98 308 q 93 296 94 299 q 90 289 92 292 q 121 313 105 304 q 153 322 136 322 q 203 304 190 322 q 217 258 217 286 q 214 233 217 246 q 208 206 212 219 q 200 180 204 193 q 191 157 195 168 q 189 151 190 154 q 186 144 188 147 q 178 121 182 133 q 171 98 174 109 q 166 77 168 87 q 164 58 164 67 l 164 57 q 165 45 164 51 q 169 35 166 39 q 184 28 174 28 l 184 28 q 214 41 200 28 q 240 71 228 53 q 263 111 252 90 q 281 152 273 133 l 282 154 q 290 162 285 159 q 301 161 296 164 "},"o":{"ha":265,"x_min":-4,"x_max":306,"o":"m 296 161 q 303 154 301 159 q 303 143 306 149 q 300 136 302 140 q 298 130 299 133 q 295 124 296 127 q 292 118 293 121 q 276 92 284 104 q 258 68 269 79 q 232 50 246 57 q 198 43 217 43 q 179 45 188 43 q 149 62 162 51 q 106 18 130 36 q 57 0 81 0 q 16 14 29 0 q -1 51 2 28 q 1 102 -4 74 q 15 158 6 130 q 35 210 24 185 q 56 250 46 234 q 98 301 75 281 q 151 322 122 322 l 151 322 q 179 316 166 321 q 202 300 193 311 q 215 277 210 290 q 219 245 220 263 q 215 209 219 229 q 204 169 211 190 q 187 126 197 148 q 166 86 178 105 q 186 73 174 77 q 198 72 193 72 q 220 77 210 72 q 237 89 230 81 q 253 109 246 98 q 266 131 260 119 q 269 136 267 134 q 271 142 270 138 q 274 148 273 144 q 277 154 275 151 q 284 162 279 159 q 296 161 290 164 m 150 162 q 158 156 155 161 q 160 144 161 151 q 158 136 159 140 q 157 129 157 132 q 181 191 172 159 q 191 245 190 222 q 180 281 191 269 q 168 290 175 287 q 151 294 160 293 q 113 277 131 294 q 81 235 96 260 q 65 204 74 224 q 48 162 56 185 q 34 115 39 139 q 27 72 28 92 q 33 41 26 53 q 57 28 40 28 q 96 46 76 28 q 133 87 116 64 q 127 119 127 100 q 132 152 127 136 q 139 161 134 158 q 150 162 144 163 "},"p":{"ha":258,"x_min":-101,"x_max":298,"o":"m 288 161 q 296 154 294 159 q 296 143 298 149 q 293 136 294 140 q 290 130 292 133 q 287 124 289 127 q 284 118 286 121 q 269 92 277 104 q 250 68 261 79 q 224 50 239 57 q 191 43 210 43 q 172 45 180 43 q 157 52 164 48 q 144 61 149 56 q 97 15 123 33 q 42 -2 71 -3 l 41 -2 l 40 -2 l 39 -2 q 9 7 20 -1 q -7 26 -1 14 q -29 -35 -18 -5 q -48 -89 -39 -64 q -63 -131 -57 -113 q -72 -156 -69 -149 q -79 -164 -74 -161 q -90 -165 -85 -167 q -98 -157 -96 -163 q -99 -146 -101 -152 q -89 -118 -96 -138 q -71 -69 -81 -98 q -48 -5 -61 -40 q -23 66 -36 29 q 5 144 -9 105 q 32 216 20 183 q 52 271 43 248 q 63 302 60 294 q 65 307 64 304 q 67 313 66 310 q 75 321 69 318 q 85 321 80 323 q 94 314 91 319 q 94 303 96 309 l 89 289 q 120 314 104 304 q 157 322 137 323 q 199 299 186 321 q 209 275 206 289 q 212 245 212 261 l 211 241 l 211 241 q 207 209 210 227 q 197 171 203 191 q 182 131 191 151 q 163 92 174 111 q 159 85 162 90 q 179 73 168 77 q 185 72 182 73 q 191 72 188 72 q 213 77 203 72 q 231 89 222 81 q 246 109 239 98 q 259 131 253 119 q 262 136 260 134 q 264 142 263 138 q 267 148 266 144 q 269 154 268 151 q 277 162 272 159 q 288 161 283 164 m 142 162 q 151 156 148 161 q 153 144 154 151 q 151 135 151 140 q 149 127 150 131 q 173 189 164 158 q 182 242 181 220 l 182 243 l 182 245 l 182 246 q 181 268 183 258 q 176 283 180 277 q 156 294 170 293 q 117 277 135 294 q 83 234 99 260 q 55 177 68 208 q 32 121 42 147 l 27 110 q 21 86 24 98 q 17 62 18 73 q 21 37 16 47 q 41 26 26 27 l 41 26 l 43 26 q 87 43 66 26 q 126 86 109 60 q 120 119 120 100 q 125 152 120 136 q 132 161 126 158 q 142 162 137 163 "},"q":{"ha":274,"x_min":-2,"x_max":314,"o":"m 304 161 q 312 153 310 158 q 312 142 314 147 q 286 90 299 115 q 257 47 273 65 q 227 21 243 31 q 191 10 211 12 q 196 -26 195 -9 q 199 -59 198 -43 q 182 -148 199 -116 q 133 -188 164 -182 l 132 -189 q 127 -189 130 -189 q 121 -189 124 -189 l 119 -189 l 117 -189 q 96 -183 104 -189 q 81 -170 87 -178 q 74 -153 76 -163 q 72 -134 72 -143 l 71 -134 l 71 -131 q 72 -130 71 -130 q 74 -111 72 -121 q 79 -88 75 -100 q 86 -62 82 -76 q 95 -35 90 -49 q 106 -2 100 -18 q 118 32 113 15 q 88 8 104 18 q 53 0 72 -1 q 11 23 24 1 q 1 47 3 33 q -1 77 -2 61 q 3 112 -1 92 q 14 156 7 133 q 31 203 20 179 q 53 248 41 227 q 96 300 72 279 q 149 322 119 321 l 155 322 q 180 315 168 321 q 201 298 192 309 q 210 286 205 293 l 220 313 q 227 321 222 318 q 238 321 233 323 q 246 313 243 319 q 246 302 248 308 q 233 268 239 286 q 220 233 227 250 q 219 231 220 231 q 219 229 219 230 q 217 224 218 226 q 182 130 199 178 q 152 43 167 86 q 122 -44 137 -1 q 114 -71 117 -58 q 106 -96 110 -84 q 102 -115 104 -106 q 100 -130 100 -123 l 100 -131 l 100 -134 q 105 -154 100 -147 q 119 -161 110 -161 l 119 -161 l 121 -161 q 127 -160 125 -161 q 156 -135 144 -157 q 166 -103 163 -122 q 170 -60 170 -85 q 168 -22 170 -42 q 160 22 165 -1 q 160 28 159 25 q 166 38 161 35 q 176 40 171 41 q 209 44 194 37 q 235 66 223 51 q 262 105 250 82 q 286 153 274 128 q 294 161 288 159 q 304 161 299 163 m 54 28 q 92 45 74 28 q 125 87 110 62 q 153 143 140 113 q 176 199 165 174 q 183 219 180 210 q 191 235 187 228 q 192 239 191 236 l 192 243 q 180 279 191 267 q 153 293 168 292 q 149 294 151 294 q 111 276 129 293 q 77 233 93 259 q 57 192 66 214 q 41 149 47 170 q 31 109 35 127 q 27 77 27 90 q 35 39 27 51 q 54 28 41 29 "},"t":{"ha":141,"x_min":-11,"x_max":182,"o":"m 172 161 q 180 153 178 159 q 179 142 182 148 q 158 100 168 119 q 138 66 148 81 q 94 17 117 34 q 68 5 81 9 q 39 0 54 0 l 39 0 q 19 4 28 0 q 3 15 10 7 q -11 57 -11 31 l -11 58 l -11 59 q -3 101 -11 75 q 4 127 0 113 q 13 155 7 140 q 18 171 14 160 q 28 197 22 181 q 39 229 33 212 q 52 264 45 246 q 56 274 53 267 q 62 294 58 282 l 20 294 q 9 298 14 294 q 5 308 5 302 q 9 318 5 313 q 20 322 14 322 l 72 322 q 75 330 73 326 q 77 337 76 334 q 87 365 82 351 q 96 391 92 379 q 103 411 100 403 q 107 423 106 420 q 115 431 109 429 q 125 432 120 434 q 134 425 131 430 q 134 414 136 419 q 130 402 133 410 q 123 382 127 393 q 114 356 119 370 q 104 328 109 342 q 103 325 104 326 q 102 322 103 323 l 148 322 q 158 318 154 322 q 162 308 162 313 q 158 298 162 302 q 148 294 154 294 l 92 294 q 84 269 87 279 q 79 254 80 259 q 65 217 71 234 q 54 186 59 199 q 46 163 50 174 q 40 146 43 153 q 31 119 35 132 q 24 94 27 106 q 19 74 21 83 q 18 58 18 65 l 18 57 q 24 35 18 41 q 39 28 29 28 l 39 28 q 59 32 47 28 q 77 41 69 35 q 96 58 87 47 q 114 81 104 68 q 133 114 123 96 q 153 155 142 132 q 161 162 155 160 q 172 161 167 164 "},"u":{"ha":248,"x_min":-10,"x_max":288,"o":"m 279 161 q 286 153 284 159 q 286 142 288 148 l 285 140 q 263 94 275 119 q 237 49 252 70 q 203 14 222 28 q 162 0 184 0 l 161 0 l 161 0 q 138 5 147 0 q 123 20 128 11 q 117 33 119 26 q 113 48 115 41 q 80 14 98 27 q 39 0 62 0 l 38 0 q 15 5 24 0 q -1 20 5 11 q -8 37 -6 28 q -10 57 -10 47 l -10 59 q -3 101 -10 75 q 4 127 1 113 q 14 155 8 140 q 21 176 16 162 q 33 210 26 191 q 52 261 42 234 q 71 313 62 288 q 79 321 73 319 q 90 321 84 323 q 97 314 95 319 q 98 303 100 309 q 77 247 87 273 q 60 200 68 220 q 48 168 54 182 q 41 146 43 153 q 32 119 35 132 q 24 94 28 106 q 20 74 22 83 q 18 58 18 65 l 18 57 q 19 45 18 51 q 23 35 20 39 q 39 28 28 28 q 68 41 54 28 q 94 71 82 53 q 117 111 106 90 q 136 152 127 133 l 136 153 q 136 155 136 153 q 144 176 139 162 q 156 210 149 191 q 175 261 165 234 q 194 313 184 288 q 201 321 196 319 q 212 321 207 323 q 220 314 218 319 q 221 303 223 309 q 200 247 210 273 q 183 200 191 220 q 172 168 176 182 q 163 146 167 153 l 163 145 q 163 144 163 144 q 163 142 163 143 q 154 117 158 129 q 148 94 151 104 q 142 58 142 72 l 142 57 q 143 45 142 51 q 146 35 144 39 q 161 28 151 28 l 162 28 q 192 41 178 28 q 218 71 205 53 q 240 111 230 90 q 258 152 250 133 l 260 154 q 268 162 262 159 q 279 161 273 164 "},"v":{"ha":234,"x_min":-12,"x_max":275,"o":"m 264 161 q 272 154 270 159 q 272 143 275 149 q 269 136 271 140 q 267 130 268 133 q 264 124 265 127 q 260 118 262 121 q 245 92 254 104 q 227 68 237 79 q 201 50 215 57 q 167 43 186 43 q 148 45 157 43 q 133 52 140 48 q 119 62 125 56 q 114 55 117 58 q 110 48 112 52 q 75 13 93 26 q 37 0 57 0 l 36 0 q 13 6 22 1 q -2 20 3 11 q -9 37 -7 28 q -12 57 -12 47 l -12 59 q -4 101 -12 75 q 3 127 -1 113 q 12 155 7 140 q 20 176 15 162 q 32 210 24 191 q 50 261 41 234 q 69 313 60 288 q 77 321 71 319 q 88 321 83 323 q 96 314 94 319 q 96 303 98 309 q 76 247 85 273 q 59 200 66 220 q 47 168 52 182 q 39 146 42 153 q 30 119 34 132 q 23 94 26 106 q 19 74 20 83 q 17 58 17 65 l 17 57 q 18 45 17 51 q 22 35 19 39 q 37 28 26 29 l 37 28 q 62 38 50 28 q 87 65 74 48 q 94 76 90 71 q 102 87 98 81 q 96 119 96 102 q 101 152 96 136 q 108 161 102 158 q 119 162 113 163 q 127 156 124 161 q 129 144 130 151 q 127 136 127 140 q 125 128 126 132 q 134 144 130 136 q 142 161 138 152 q 184 243 165 203 q 203 281 195 262 q 220 315 212 299 q 228 322 222 320 q 239 321 234 324 q 247 313 245 319 q 246 302 249 307 q 229 267 238 285 q 210 230 220 250 q 190 190 201 210 q 168 147 180 169 q 152 116 160 132 q 135 86 144 100 q 155 73 144 76 q 161 72 159 73 q 168 72 164 72 q 190 77 180 72 q 207 89 199 81 q 222 109 216 98 q 235 131 229 119 q 238 136 237 134 q 241 142 239 138 q 243 148 242 144 q 245 154 244 151 q 254 162 248 159 q 264 161 259 164 "},"w":{"ha":359,"x_min":-10,"x_max":399,"o":"m 389 161 q 397 154 395 159 q 397 143 399 149 q 394 136 395 140 q 391 130 393 133 q 388 124 390 127 q 385 118 387 121 q 370 92 378 104 q 351 68 362 79 q 325 50 340 57 q 292 43 311 43 q 273 45 281 43 q 257 52 264 48 q 244 62 250 56 q 239 55 241 58 q 234 48 237 52 q 200 13 218 26 q 162 0 182 0 l 161 0 q 138 6 147 1 q 123 20 128 11 q 117 33 119 26 q 113 48 115 41 q 80 14 98 27 q 39 0 62 0 l 38 0 q 15 5 24 0 q -1 20 5 11 q -8 37 -6 28 q -10 57 -10 47 l -10 59 q -3 101 -10 75 q 4 127 1 113 q 14 155 8 140 q 21 176 16 162 q 33 210 26 191 q 52 261 42 234 q 71 313 62 288 q 79 321 73 319 q 90 321 84 323 q 97 314 95 319 q 98 303 100 309 q 77 247 87 273 q 60 200 68 220 q 48 168 54 182 q 41 146 43 153 q 32 119 35 132 q 24 94 28 106 q 20 74 22 83 q 18 58 18 65 l 18 57 q 19 45 18 51 q 23 35 20 39 q 39 28 28 28 q 68 41 54 28 q 94 71 82 53 q 117 111 106 90 q 136 152 127 133 l 136 153 l 136 155 q 144 176 139 162 q 156 210 149 191 q 175 261 165 234 q 194 313 184 288 q 201 321 196 319 q 212 321 207 323 q 220 314 218 319 q 221 303 223 309 q 200 247 210 273 q 183 200 191 220 q 172 168 176 182 q 163 146 167 153 l 163 145 q 163 143 163 144 q 163 142 163 143 q 154 117 158 129 q 148 94 151 105 q 142 58 142 72 l 142 57 q 143 45 142 51 q 146 35 144 39 q 161 28 151 29 l 162 28 q 186 38 174 28 q 212 65 199 48 q 219 76 215 71 q 227 87 222 81 q 221 119 221 102 q 226 152 221 136 q 232 161 227 158 q 243 162 237 163 q 252 156 249 161 q 254 144 255 151 q 252 136 252 140 q 250 128 251 132 q 259 144 254 136 q 267 161 263 152 q 309 243 290 203 q 328 281 319 262 q 345 315 337 299 q 353 322 347 320 q 363 321 358 324 q 371 313 369 319 q 370 302 373 307 q 353 267 362 285 q 335 230 345 250 q 314 190 325 210 q 293 147 304 169 q 276 116 284 132 q 260 86 268 100 q 280 73 267 77 q 292 72 287 72 q 314 77 304 72 q 331 89 323 81 q 347 109 340 98 q 360 131 354 119 q 362 136 361 134 q 365 142 363 138 q 368 148 366 144 q 370 154 369 151 q 378 162 373 159 q 389 161 384 164 "},"x":{"ha":312,"x_min":0,"x_max":353,"o":"m 342 161 q 350 153 348 159 q 350 142 353 148 q 329 98 340 122 q 302 53 317 74 q 267 15 286 31 q 223 0 247 0 q 188 9 203 0 q 162 33 173 18 q 143 68 151 48 q 130 112 135 89 l 34 5 q 24 0 30 0 q 14 3 18 -1 q 8 13 9 7 q 12 24 8 19 l 123 147 q 117 188 119 168 q 112 227 114 208 q 108 261 110 245 q 104 289 106 277 q 101 283 102 286 q 98 277 100 280 q 97 274 98 275 q 96 271 97 273 q 83 240 90 256 q 68 209 76 224 q 48 162 58 185 q 28 119 38 139 q 20 112 26 114 q 9 112 15 109 q 2 120 4 115 q 3 131 0 125 q 22 175 12 152 q 43 220 33 197 q 57 254 50 237 q 71 283 64 270 q 72 288 71 285 q 77 299 74 293 q 84 311 80 306 q 94 320 88 317 q 108 324 100 324 q 125 316 119 324 l 125 315 q 130 302 128 310 q 136 271 134 289 q 140 231 138 252 q 143 203 142 217 q 147 174 145 189 l 275 317 q 284 322 279 321 q 295 318 290 322 q 299 309 299 315 q 296 298 300 302 l 153 138 q 163 96 157 116 q 177 62 169 77 q 197 38 186 47 q 223 29 208 29 q 253 41 239 29 q 279 70 267 52 q 303 112 292 89 q 323 154 315 134 q 332 162 326 159 q 342 161 337 164 "},"y":{"ha":256,"x_min":-98,"x_max":296,"o":"m 286 162 q 293 155 291 160 q 294 144 296 149 q 258 76 277 105 q 220 26 240 47 q 177 -11 199 4 q 132 -35 155 -26 q 114 -42 123 -39 q 96 -48 105 -45 l 87 -72 q 73 -112 80 -92 q 54 -149 65 -132 q 24 -178 41 -167 q -17 -191 7 -189 q -25 -191 -21 -191 q -32 -190 -28 -191 q -60 -182 -48 -189 q -81 -168 -73 -176 q -93 -147 -89 -158 q -98 -124 -97 -136 l -98 -115 q -86 -79 -96 -92 q -60 -57 -76 -65 q -24 -44 -44 -49 q 20 -35 -3 -39 q 46 -30 33 -33 q 73 -24 60 -28 q 81 -1 77 -13 q 90 22 85 10 q 65 6 78 12 q 39 0 53 0 l 38 0 l 37 0 q 14 5 24 0 q -1 20 5 11 q -9 37 -7 28 q -11 57 -11 47 l -11 59 q -8 78 -10 67 q -3 101 -7 88 q 4 127 0 113 q 13 155 8 140 q 20 176 16 162 q 33 210 25 191 q 51 261 41 234 q 71 313 61 288 q 78 321 73 319 q 89 321 83 323 q 97 314 94 319 q 97 303 99 309 q 77 247 86 273 q 60 200 67 220 q 48 168 53 182 q 40 146 43 153 q 32 119 35 132 q 24 94 28 106 q 20 74 21 83 q 18 58 18 65 l 18 57 l 18 57 q 19 45 18 51 q 23 35 20 39 q 38 28 28 28 l 39 28 q 68 41 54 28 q 94 71 82 53 q 117 111 106 90 q 135 152 127 133 l 136 154 q 136 155 136 155 q 141 167 138 161 q 145 178 143 173 q 157 212 151 194 q 171 249 164 231 q 184 283 178 267 q 195 311 191 300 l 195 312 l 195 313 q 203 321 197 318 q 214 321 208 323 q 222 313 219 319 q 222 302 224 308 l 222 302 l 222 301 q 211 273 217 290 q 198 239 205 257 q 184 203 191 221 q 172 169 178 184 q 155 121 163 146 q 136 68 146 96 q 121 27 128 47 q 107 -14 115 7 q 114 -12 111 -13 q 121 -9 117 -10 q 161 13 142 0 q 199 45 180 26 q 235 92 218 65 q 267 155 252 118 q 275 162 269 160 q 286 162 280 165 m 62 -56 q 44 -60 53 -58 q 25 -64 35 -62 q -11 -71 6 -67 q -40 -80 -27 -74 q -60 -94 -52 -85 q -69 -117 -68 -103 l -69 -123 q -60 -148 -68 -138 q -29 -161 -49 -159 q -24 -162 -26 -162 q -18 -162 -21 -162 q 10 -153 -1 -161 q 30 -133 22 -145 q 46 -100 39 -119 q 60 -63 54 -82 l 62 -56 "},"z":{"ha":285,"x_min":-48,"x_max":326,"o":"m 315 162 q 323 155 321 160 q 323 144 326 149 q 290 81 307 108 q 254 34 273 54 q 215 0 235 14 q 176 -23 195 -14 q 152 -77 165 -52 q 125 -119 138 -102 q 81 -161 106 -145 q 58 -173 70 -169 q 33 -178 46 -177 q 25 -178 28 -178 q 18 -177 21 -178 q -31 -155 -14 -174 q -43 -134 -39 -145 q -48 -111 -47 -123 l -48 -102 q -37 -66 -46 -79 q -14 -45 -28 -53 q 19 -33 1 -37 q 60 -25 38 -29 q 105 -17 81 -22 q 153 -1 128 -12 l 155 4 q 162 40 160 22 q 163 73 165 57 q 156 92 161 84 q 100 79 130 79 q 92 79 96 79 q 84 80 87 79 q 59 88 69 82 q 45 113 44 98 l 45 117 q 66 143 47 134 q 100 150 80 151 q 146 139 128 148 q 161 130 155 135 q 174 140 168 134 q 205 180 193 158 q 218 222 216 202 q 218 228 218 225 q 218 233 218 231 q 204 276 218 260 q 172 293 193 291 q 169 293 170 293 q 165 294 167 294 q 150 291 158 293 q 133 284 141 289 q 102 258 117 276 q 82 230 92 245 l 64 197 q 46 159 54 178 q 31 125 37 141 l 28 119 q 20 112 25 114 q 9 112 14 109 q 1 119 3 114 q 1 130 -1 125 l 4 137 q 20 172 12 153 q 39 210 28 191 q 48 228 43 220 q 58 245 52 237 q 69 261 63 254 q 80 277 75 269 q 119 310 99 298 q 165 322 142 322 q 170 322 168 322 q 174 321 172 322 q 203 313 190 320 q 226 295 216 307 q 241 268 235 283 q 247 233 247 253 q 247 226 248 230 q 247 219 247 222 q 230 168 244 195 q 195 120 216 141 q 188 114 191 117 q 180 107 184 111 q 191 77 189 94 q 192 47 193 63 q 188 16 191 32 q 245 68 218 35 q 296 155 273 100 q 304 162 299 160 q 315 162 310 165 m 101 108 q 133 113 117 107 q 118 119 126 117 q 98 121 109 121 q 79 118 87 121 q 73 113 73 115 l 73 113 q 74 113 73 113 q 80 111 77 111 q 88 109 83 110 q 95 108 92 108 q 101 108 98 108 m 102 -102 q 121 -73 111 -90 q 139 -37 130 -56 q 101 -47 119 -43 q 64 -54 82 -50 q 32 -59 47 -56 q 6 -68 18 -62 q -12 -82 -5 -73 q -20 -104 -18 -90 l -20 -111 q -10 -135 -18 -125 q 20 -149 1 -146 q 26 -149 23 -149 q 32 -149 28 -149 q 66 -137 50 -148 q 85 -122 76 -131 q 102 -102 94 -113 "},"A":{"ha":519,"x_min":0,"x_max":554,"o":"m 550 458 q 552 421 554 443 q 543 373 549 399 q 526 319 536 347 q 507 263 516 290 q 497 237 501 250 q 489 214 492 224 l 489 214 q 484 200 487 208 q 477 182 481 192 q 454 120 467 155 q 430 51 441 85 q 411 -11 419 18 q 404 -52 404 -39 l 404 -54 q 406 -78 404 -66 q 413 -97 408 -89 q 427 -109 418 -104 q 448 -113 435 -113 l 449 -113 q 459 -118 454 -113 q 463 -128 463 -122 q 459 -138 463 -134 q 449 -142 454 -142 l 448 -142 q 412 -134 426 -142 q 389 -113 398 -126 q 378 -85 381 -100 q 374 -54 374 -70 l 374 -54 l 374 -52 q 382 -6 374 -36 q 402 58 391 23 q 427 129 414 93 q 450 191 440 164 q 453 199 452 197 l 309 199 q 266 129 288 163 q 221 69 243 96 q 175 25 198 43 q 127 3 151 8 q 115 1 121 2 q 103 1 109 1 q 68 6 85 1 q 37 20 51 11 q 1 75 9 41 q 0 84 1 80 q 0 93 0 88 q 11 141 0 118 q 28 167 18 155 q 50 187 39 179 q 104 205 76 205 q 136 198 121 205 q 143 190 141 195 q 142 179 145 184 q 134 172 140 174 q 123 172 129 170 q 104 176 114 176 q 66 163 85 176 q 37 129 47 151 q 31 112 33 121 q 28 93 28 102 q 29 87 28 90 q 30 81 29 84 q 54 44 34 58 q 103 30 73 30 q 113 30 108 30 q 122 31 117 30 q 160 50 141 35 q 199 87 180 64 q 238 138 218 109 q 276 199 257 167 l 243 199 q 232 203 237 199 q 228 213 228 208 q 232 223 228 219 q 243 228 237 228 l 293 228 q 318 273 306 250 q 342 317 330 296 q 388 400 366 362 q 427 462 409 438 q 443 478 435 471 q 460 490 450 485 q 497 502 479 502 q 530 490 516 502 q 550 458 543 477 m 479 273 q 497 326 488 299 q 513 376 507 352 q 523 419 520 399 q 522 450 526 438 q 512 468 519 461 q 497 473 507 473 q 474 466 488 473 q 450 444 460 458 q 412 385 433 422 q 368 304 391 347 q 347 266 357 286 q 326 228 336 247 l 463 228 q 471 251 467 239 q 479 273 475 262 "},"B":{"ha":538,"x_min":-9,"x_max":515,"o":"m 481 453 q 507 409 498 433 q 514 359 515 385 q 514 356 514 357 q 513 353 513 354 q 499 298 511 325 q 463 250 486 271 q 452 241 458 245 q 441 233 447 237 l 453 218 q 480 166 471 195 q 487 107 488 137 q 474 48 486 77 q 441 -1 463 20 q 397 -32 422 -20 q 338 -42 371 -43 l 324 -42 q 278 -32 298 -40 q 246 -12 259 -24 q 227 16 233 1 q 220 46 220 31 l 220 51 l 220 52 q 230 82 222 68 q 249 105 237 96 q 280 119 262 116 q 315 115 298 123 q 339 97 328 109 q 357 66 349 85 q 356 55 359 60 q 348 47 353 50 q 337 48 342 45 q 330 56 332 51 q 304 88 321 81 q 285 91 295 93 q 267 83 275 89 q 255 69 259 77 q 250 50 250 60 q 249 46 249 47 q 266 9 249 25 q 290 -6 275 0 q 326 -13 304 -12 q 332 -14 330 -14 q 338 -14 334 -14 q 386 -5 365 -14 q 421 19 406 3 q 448 60 439 37 q 458 109 456 83 q 452 157 459 134 q 431 201 446 181 q 422 211 427 206 q 413 219 418 215 q 387 211 401 214 q 357 208 373 209 q 342 208 351 208 q 324 210 333 208 q 305 221 313 214 q 298 245 297 229 l 298 245 q 304 263 300 257 q 316 273 309 270 q 331 275 323 275 q 347 275 339 275 q 351 274 349 274 q 355 273 353 274 l 357 273 l 358 273 q 416 252 391 269 q 444 271 431 260 q 473 310 463 288 q 485 355 484 332 q 485 358 485 357 q 486 361 486 359 q 459 434 487 402 q 424 460 446 450 q 372 472 403 470 q 367 473 369 473 q 363 473 365 473 l 355 473 q 281 458 315 473 q 223 416 248 444 q 184 348 198 388 q 168 258 170 309 l 168 246 q 168 236 168 240 q 161 232 167 232 q 147 236 155 232 q 139 246 139 240 q 139 252 139 249 q 140 259 139 255 q 157 359 141 315 q 202 435 174 404 q 270 485 231 468 q 355 502 309 502 q 358 502 357 502 q 363 501 360 501 q 374 500 371 501 l 375 500 q 437 485 411 498 q 481 453 463 473 m 357 237 q 378 239 368 237 q 353 245 366 243 l 351 245 q 344 246 346 246 q 333 247 338 247 q 327 242 328 246 l 327 241 q 332 238 327 239 q 344 236 337 237 q 357 237 351 236 m 333 395 q 308 333 319 368 q 284 260 296 298 q 259 180 272 220 q 228 105 245 140 q 189 44 211 71 q 136 7 166 18 q 124 3 130 5 q 112 0 118 1 q 45 9 76 -6 q 0 55 13 24 q -1 56 0 56 q -3 64 -2 60 q -5 73 -4 68 q -3 122 -9 97 l -3 123 q 9 151 1 138 q 28 175 18 164 q 78 201 51 197 q 111 200 94 204 q 119 193 116 199 q 120 182 121 188 q 114 174 119 177 q 102 172 109 171 q 83 173 94 175 q 48 154 64 170 q 25 115 31 138 l 25 115 q 23 78 20 97 q 26 66 24 73 l 26 66 q 57 35 36 44 q 107 28 80 24 q 117 31 112 30 q 126 34 121 32 q 171 67 151 43 q 205 123 190 91 q 233 193 220 155 q 257 269 245 231 q 281 344 269 308 q 307 408 293 380 q 319 426 313 418 q 334 442 326 435 q 369 460 350 456 q 380 457 375 461 q 386 448 385 454 q 384 437 387 442 q 374 431 380 433 q 353 420 363 429 q 342 409 347 415 q 333 395 336 402 "},"C":{"ha":402,"x_min":-3,"x_max":442,"o":"m 432 162 q 440 154 437 159 q 440 143 442 149 q 400 64 422 99 q 351 4 378 28 q 292 -33 324 -20 q 220 -46 259 -46 l 212 -46 q 162 -36 185 -45 q 122 -11 140 -27 q 95 33 104 6 q 85 93 85 60 q 94 159 85 124 q 114 232 102 193 q 70 248 90 237 q 35 275 50 259 q 7 320 16 294 q 1 380 -3 346 q 16 442 3 411 q 31 471 22 458 q 49 496 39 485 q 59 501 53 501 q 69 498 64 501 q 74 488 74 494 q 71 477 75 482 q 43 431 54 458 q 29 377 31 404 q 34 330 27 350 q 55 294 41 309 q 124 259 81 269 q 130 273 127 267 q 135 287 132 280 q 181 379 156 336 q 232 448 206 422 q 282 486 256 473 q 336 500 311 500 l 340 500 q 372 492 357 498 q 397 473 387 486 q 414 445 408 462 q 420 405 420 427 l 420 398 q 417 378 420 388 q 412 357 415 368 q 404 338 408 348 q 392 320 399 329 l 391 319 q 346 277 373 295 q 287 246 319 258 q 215 228 252 233 q 146 227 178 223 l 142 227 q 122 156 131 189 q 114 93 114 123 q 121 45 114 67 q 142 10 128 23 q 213 -17 169 -16 q 220 -18 214 -18 q 283 -6 255 -18 q 335 27 312 5 q 378 81 359 50 q 414 154 397 113 q 421 162 416 159 q 432 162 427 164 m 161 276 q 153 254 157 264 q 213 257 181 252 q 277 273 245 262 q 329 300 305 284 q 369 336 353 315 q 378 352 374 344 q 385 367 382 359 q 390 383 388 375 q 391 399 391 391 q 392 402 391 401 q 392 405 392 404 q 376 454 392 437 q 339 471 361 470 l 336 471 q 295 460 318 471 q 253 429 273 449 q 205 363 229 404 q 161 276 181 323 "},"D":{"ha":565,"x_min":-3,"x_max":542,"o":"m 340 395 q 314 333 326 368 q 291 260 302 298 q 266 180 279 220 q 235 105 252 140 q 195 44 218 71 q 143 7 173 18 q 131 3 137 5 q 119 0 125 1 q 52 9 83 -6 q 7 55 20 24 q 6 56 7 56 q 6 56 6 56 q 4 64 5 60 q 1 73 3 68 q 4 122 -3 97 l 4 123 q 16 151 8 138 q 35 175 24 164 q 85 201 58 197 q 117 200 100 204 q 125 193 123 199 q 127 182 128 188 q 120 174 125 177 q 109 172 115 171 q 90 173 100 175 q 55 154 71 170 q 32 115 38 138 l 32 115 q 30 78 26 97 q 33 66 31 73 l 33 66 q 64 35 43 44 q 114 28 87 24 q 123 31 119 30 q 133 34 128 32 q 177 67 158 43 q 212 123 197 91 q 240 193 227 155 q 264 269 252 231 q 288 344 275 308 q 314 408 300 380 q 326 426 319 418 q 340 442 333 435 q 376 460 357 456 q 387 457 382 461 q 393 448 391 454 q 390 437 394 442 q 381 431 387 433 q 359 420 370 429 q 349 409 354 415 q 340 395 343 402 m 503 427 q 532 357 523 396 q 542 275 542 318 q 542 264 542 270 q 541 252 542 258 q 528 168 538 210 q 500 88 518 125 q 461 23 484 53 q 412 -25 439 -7 l 411 -25 l 412 -25 q 374 -41 395 -35 q 333 -46 355 -46 l 319 -46 q 274 -35 293 -44 q 243 -14 255 -25 q 226 13 231 -1 q 220 43 220 27 l 220 48 q 227 75 222 63 q 242 97 233 87 q 290 117 262 117 q 331 102 313 117 q 356 63 347 88 q 356 52 358 58 q 348 45 353 47 q 337 45 342 43 q 330 54 332 48 q 312 80 323 71 q 290 89 302 89 q 262 77 275 89 q 249 47 251 65 l 249 43 q 252 24 249 33 q 263 7 256 15 q 286 -8 272 -1 q 321 -17 300 -16 q 327 -18 324 -18 q 333 -18 330 -18 q 366 -14 351 -18 q 382 -8 374 -11 q 397 -1 390 -5 q 440 41 420 14 q 475 100 459 68 q 501 174 491 135 q 513 254 511 214 q 513 264 513 259 q 513 275 513 269 q 505 349 513 314 q 479 412 497 385 q 436 454 463 437 q 373 473 410 471 l 363 473 q 283 457 319 473 q 222 412 248 441 q 182 340 197 382 q 168 246 168 299 q 163 236 168 240 q 153 232 159 232 q 143 236 148 232 q 139 246 139 240 q 156 351 140 304 q 201 431 172 397 q 272 483 231 465 q 363 501 313 501 l 374 501 q 451 479 419 498 q 503 427 483 459 "},"E":{"ha":323,"x_min":0,"x_max":363,"o":"m 353 162 q 361 154 359 159 q 361 143 363 149 q 272 7 324 54 q 141 -41 220 -41 q 131 -40 134 -41 q 37 -1 72 -37 q 9 40 19 16 q 0 94 0 64 l 0 103 q 17 170 2 136 q 61 233 31 205 q 124 275 87 259 q 102 310 110 290 q 96 354 94 330 q 98 368 97 361 q 101 382 99 374 q 79 394 89 387 q 39 429 58 408 q 6 480 20 450 q 5 491 3 486 q 13 499 7 496 q 24 500 18 502 q 32 492 29 498 q 60 448 44 467 q 95 418 76 430 q 102 413 98 415 q 111 408 106 411 q 149 460 124 437 q 200 491 171 480 q 261 503 229 503 q 290 499 276 503 q 313 489 303 496 q 329 472 323 482 q 335 448 335 462 l 335 448 l 335 447 q 323 415 334 431 q 292 387 312 399 q 248 368 273 376 q 192 361 222 361 l 186 361 q 127 371 158 361 q 125 361 126 366 q 124 351 125 357 q 132 314 123 331 q 154 286 140 298 q 175 290 164 288 q 197 294 186 292 q 226 294 214 296 q 245 285 240 292 q 252 277 250 281 q 254 268 254 273 q 254 259 256 263 q 244 240 252 247 q 224 231 236 233 q 209 231 217 230 q 193 233 201 231 q 160 246 178 236 q 154 250 157 248 q 149 254 152 252 q 81 212 109 239 q 43 159 56 189 q 29 101 31 130 q 28 94 28 99 q 57 19 28 46 q 132 -12 84 -9 q 136 -12 134 -12 q 141 -12 138 -12 q 256 31 210 -12 q 334 154 301 73 q 342 162 336 159 q 353 162 348 164 m 201 265 q 190 264 197 265 q 200 261 193 262 q 220 259 212 258 q 226 264 226 260 q 221 266 224 265 q 201 265 213 267 m 168 439 q 137 398 148 420 q 187 390 162 390 l 192 390 q 239 396 218 390 q 277 412 261 402 q 307 448 305 430 l 307 448 q 304 458 307 454 q 297 465 301 462 q 261 474 284 474 q 210 465 234 474 q 168 439 186 455 "},"F":{"ha":429,"x_min":-1,"x_max":565,"o":"m 564 463 q 565 461 565 463 q 558 441 565 450 q 541 425 552 432 q 492 414 522 414 q 444 416 467 414 q 399 422 420 418 q 395 415 397 418 q 391 408 393 412 q 358 332 372 374 q 332 254 343 291 q 323 228 328 240 l 384 228 q 394 223 390 228 q 398 213 398 219 q 394 203 398 208 q 384 199 390 199 l 314 199 q 309 185 311 191 q 305 172 307 178 q 278 94 292 132 q 243 26 264 56 q 192 -20 222 -3 q 117 -37 162 -38 l 112 -37 q 64 -25 85 -36 q 28 1 43 -15 q 0 85 -1 36 l 0 90 q 14 144 1 121 q 45 185 26 168 q 95 217 67 207 q 146 229 122 228 q 157 224 153 229 q 161 214 161 220 q 157 204 161 208 q 146 199 153 199 q 105 191 127 199 q 64 165 83 182 q 40 132 50 151 q 28 89 30 113 l 28 85 l 28 84 q 50 20 28 46 q 77 0 61 8 q 113 -9 93 -7 l 117 -9 q 179 6 154 -9 q 222 49 205 22 q 253 110 240 76 q 277 180 266 144 q 280 190 279 185 q 283 199 282 195 l 244 199 q 234 203 238 199 q 230 213 230 208 q 234 223 230 219 q 244 228 238 228 l 293 228 q 298 244 296 235 q 304 263 301 254 q 331 342 316 300 q 366 422 346 385 q 369 428 366 424 q 331 438 349 433 q 294 448 312 443 q 226 467 259 458 q 157 475 193 475 q 125 468 141 475 q 98 448 110 460 q 77 421 85 437 q 68 390 70 406 q 75 350 67 366 q 100 323 83 332 q 140 313 117 314 q 174 315 157 311 q 209 327 192 319 q 220 328 214 330 q 228 320 225 326 q 229 309 231 315 q 221 301 227 304 q 139 284 180 282 q 86 298 109 286 q 65 315 75 305 q 50 338 56 324 q 40 391 38 361 q 52 433 41 413 q 78 469 62 454 q 114 494 94 485 q 157 503 135 503 q 230 495 195 503 q 302 475 265 487 q 343 464 322 470 q 388 453 365 458 q 404 468 395 461 q 420 479 412 474 q 461 496 440 491 q 500 503 481 502 l 501 503 l 503 503 q 543 494 527 503 q 564 463 564 484 m 536 462 q 530 469 536 466 q 503 474 520 474 l 502 474 l 500 474 q 469 469 486 473 q 435 454 452 464 q 430 451 432 453 q 424 447 427 449 q 457 444 440 445 q 492 442 474 442 q 526 450 513 442 q 536 461 536 455 l 536 462 "},"G":{"ha":477,"x_min":-3,"x_max":517,"o":"m 507 161 q 515 153 513 158 q 515 142 517 147 q 480 74 498 103 q 441 24 461 45 q 353 -37 401 -18 q 335 -44 344 -41 q 317 -50 326 -47 l 309 -74 q 294 -114 302 -94 q 275 -151 287 -134 q 246 -180 263 -168 q 204 -192 229 -191 q 197 -192 201 -192 q 189 -191 193 -192 q 161 -184 173 -190 q 141 -169 149 -178 q 124 -125 124 -151 q 124 -121 123 -123 q 124 -116 124 -119 q 136 -80 126 -94 q 161 -58 146 -66 q 197 -45 177 -50 q 241 -37 218 -41 q 268 -32 254 -35 q 295 -26 281 -29 q 312 25 304 0 q 330 76 321 50 q 331 77 330 76 q 264 10 300 35 q 185 -15 228 -15 l 179 -15 q 149 -9 165 -14 q 118 7 132 -5 q 95 40 104 20 q 85 93 85 60 q 85 97 85 95 q 86 102 85 99 q 95 163 87 130 q 114 232 102 197 q 70 248 90 237 q 35 275 50 259 q 7 320 16 294 q 1 380 -3 346 q 16 442 3 411 q 31 471 22 458 q 49 496 39 485 q 59 501 53 501 q 69 498 64 501 q 74 488 74 494 q 71 477 75 482 q 43 431 54 458 q 29 377 31 404 q 34 330 27 350 q 55 294 41 309 q 124 259 81 269 q 130 273 127 267 q 135 287 132 280 q 181 379 156 336 q 232 448 206 422 q 282 486 256 473 q 336 500 311 500 l 340 500 q 372 492 357 498 q 397 473 387 486 q 414 445 408 462 q 420 405 420 427 l 420 398 q 417 378 420 388 q 412 357 415 368 q 404 338 408 348 q 392 320 399 329 l 391 319 q 346 277 373 295 q 287 246 319 258 q 215 228 252 233 q 146 227 178 223 l 142 227 q 123 160 131 193 q 115 101 116 127 q 114 98 115 100 q 114 93 114 96 q 121 53 114 68 q 137 29 127 38 q 158 17 146 20 q 180 14 170 14 l 185 14 q 256 40 223 14 q 317 108 289 66 q 368 195 345 147 q 410 292 391 243 q 412 299 411 296 q 415 306 414 302 q 416 308 416 307 q 416 310 416 309 l 416 311 l 417 311 q 425 319 419 317 q 435 319 430 321 q 443 312 441 317 q 444 301 446 307 l 444 300 q 438 287 441 293 q 433 273 435 280 q 413 220 423 249 q 393 168 402 191 q 376 119 385 144 q 357 66 367 95 q 343 25 350 46 q 329 -16 336 5 q 336 -13 332 -14 q 342 -10 339 -12 q 382 11 363 -2 q 420 43 402 24 q 456 90 439 63 q 488 153 473 117 q 496 161 491 159 q 507 161 502 163 m 161 276 q 157 265 159 271 q 153 254 155 260 q 213 257 181 252 q 277 273 245 262 q 329 300 305 284 q 369 336 353 315 q 378 352 374 344 q 385 367 382 359 q 390 383 388 375 q 391 399 391 391 q 392 402 391 401 q 392 405 392 404 q 376 454 392 437 q 339 471 361 470 l 336 471 q 295 460 318 471 q 253 429 273 449 q 205 363 229 404 q 161 276 181 323 m 284 -58 q 266 -62 275 -60 q 247 -65 256 -64 q 211 -72 228 -68 q 182 -81 195 -76 q 162 -96 170 -87 q 153 -119 154 -104 l 153 -125 q 162 -150 153 -139 q 193 -163 172 -161 q 203 -163 196 -163 q 231 -155 220 -163 q 252 -134 243 -147 q 268 -102 261 -120 q 282 -64 275 -83 l 284 -58 "},"H":{"ha":550,"x_min":-1,"x_max":615,"o":"m 605 486 q 613 478 610 484 q 613 467 615 473 q 609 457 612 465 q 602 435 606 448 q 591 404 597 421 q 578 367 585 387 q 554 300 566 335 q 532 235 543 265 q 514 183 522 205 q 505 157 507 162 q 483 97 494 129 q 462 36 471 66 l 462 35 q 446 -17 452 6 q 439 -52 440 -40 l 439 -54 q 442 -78 439 -66 q 450 -97 444 -89 q 463 -109 455 -104 q 484 -113 471 -113 l 486 -113 q 495 -118 491 -113 q 500 -128 500 -122 q 495 -138 499 -134 q 485 -142 491 -142 l 484 -142 q 449 -134 463 -142 q 426 -113 435 -126 q 414 -85 418 -100 q 411 -54 411 -70 l 411 -52 q 418 -12 411 -37 q 434 44 425 14 l 435 45 q 456 107 444 75 q 477 167 467 139 q 489 199 480 176 l 314 199 q 309 185 311 191 q 305 172 307 178 q 278 94 292 132 q 243 26 264 56 q 192 -20 222 -3 q 117 -37 162 -38 l 112 -37 q 64 -25 85 -36 q 28 1 43 -15 q 0 85 -1 36 l 0 90 q 14 144 1 121 q 45 185 26 168 q 95 217 67 207 q 146 229 122 228 q 157 224 153 229 q 161 214 161 220 q 157 204 161 208 q 146 199 153 199 q 105 191 127 199 q 64 165 83 182 q 40 132 50 151 q 28 89 30 113 l 28 85 l 28 84 q 50 20 28 46 q 77 0 61 8 q 113 -9 93 -7 l 118 -9 q 180 6 155 -9 q 222 49 205 22 q 253 110 240 76 q 277 180 266 144 q 280 190 279 185 q 283 199 282 195 l 255 199 q 245 203 249 199 q 241 213 241 208 q 245 223 241 219 q 255 228 249 228 l 293 228 q 298 244 296 235 q 304 263 301 254 q 331 342 316 300 q 366 422 346 385 l 368 426 q 326 437 346 431 q 287 448 306 443 q 223 467 254 458 q 157 475 192 475 q 125 468 141 475 q 98 448 110 460 q 77 421 85 437 q 68 390 70 406 q 70 368 68 378 q 75 350 72 358 q 100 323 83 332 q 140 313 117 314 q 174 315 157 311 q 209 327 192 319 q 220 328 214 330 q 228 320 225 326 q 229 309 231 315 q 221 301 227 304 q 139 284 180 282 q 86 298 109 286 q 65 315 75 305 q 50 338 56 324 q 40 391 38 361 q 52 433 41 413 q 78 469 62 454 q 114 494 94 485 q 157 503 135 503 q 228 495 195 503 q 296 476 261 487 q 339 463 317 469 q 387 452 361 456 l 393 458 q 430 484 409 473 q 450 478 443 491 q 450 467 452 473 q 443 459 448 462 q 427 449 435 454 q 412 437 420 444 q 407 432 410 435 q 403 427 405 430 q 391 408 395 418 q 358 332 372 374 q 332 254 343 291 q 323 228 328 240 l 499 228 q 524 300 511 260 q 551 376 538 340 q 564 414 558 396 q 575 445 570 431 q 583 467 580 458 q 587 477 586 475 q 594 485 589 483 q 605 486 600 488 "},"I":{"ha":369,"x_min":-2,"x_max":484,"o":"m 484 499 q 484 493 484 496 q 473 466 481 477 q 452 446 465 454 q 422 430 439 437 q 387 419 406 424 q 381 401 383 410 q 376 385 378 393 q 372 372 374 378 q 368 359 370 366 q 357 324 363 344 q 345 281 351 304 q 324 210 335 248 q 299 137 313 173 q 267 70 285 102 q 227 14 250 38 q 177 -23 205 -9 q 115 -35 149 -36 q 109 -34 111 -35 q 62 -21 83 -32 q 27 6 41 -11 q 0 90 -2 41 q 1 96 0 94 q 16 150 3 126 q 47 190 28 173 q 98 221 70 210 q 150 231 125 231 q 160 226 156 231 q 164 216 164 222 q 160 206 164 210 q 149 202 155 201 q 107 194 130 202 q 66 169 85 186 q 41 136 51 155 q 29 94 31 117 q 28 90 28 92 q 49 24 27 50 q 75 4 60 12 q 111 -5 91 -4 q 114 -6 113 -5 q 115 -6 115 -6 q 168 5 144 -7 q 211 40 192 18 q 246 92 231 62 q 274 155 262 122 q 297 223 287 189 q 317 290 308 258 q 329 331 323 311 q 341 369 335 351 q 349 393 345 378 q 351 402 350 397 q 354 411 353 406 q 345 409 349 410 q 334 407 340 408 q 284 395 309 401 q 239 380 259 389 q 205 359 218 371 q 189 330 191 347 q 188 321 188 326 q 199 281 186 298 q 214 268 205 274 q 234 261 222 262 q 238 261 236 261 q 241 260 239 260 q 251 256 247 260 q 255 245 256 252 q 251 236 255 240 q 241 232 246 232 q 235 232 237 232 q 230 233 232 233 q 199 244 212 235 q 176 264 186 252 q 159 322 157 288 q 159 328 159 326 q 160 334 159 331 q 179 375 163 358 q 219 402 195 391 q 271 421 242 414 q 328 435 299 428 q 365 443 347 439 q 377 472 370 458 q 394 497 385 486 q 414 515 403 508 q 440 525 426 523 l 452 525 q 470 519 462 524 q 484 499 481 513 m 400 453 q 437 470 422 460 q 455 494 452 480 q 452 495 454 495 q 449 496 450 496 l 444 496 q 419 483 430 494 q 400 453 408 471 "},"J":{"ha":353,"x_min":0,"x_max":446,"o":"m 446 499 q 446 492 446 496 q 415 446 441 462 q 349 421 389 430 q 343 402 346 412 q 338 385 341 393 q 334 372 336 378 q 330 359 332 366 q 320 329 326 349 q 306 286 313 309 l 306 284 q 286 220 296 252 q 270 168 276 189 l 269 168 q 252 119 261 144 q 233 66 243 95 q 219 25 226 46 q 205 -16 212 5 q 218 -10 211 -14 q 259 11 239 -2 q 296 43 278 24 q 332 90 315 63 q 365 153 349 117 q 372 161 367 159 q 383 161 378 163 q 391 153 389 158 q 391 142 393 147 q 317 24 358 66 q 275 -13 297 2 q 229 -37 253 -27 q 212 -44 220 -41 q 193 -50 203 -47 l 185 -74 q 170 -114 178 -94 q 151 -151 163 -134 q 122 -180 139 -168 q 81 -192 105 -191 q 73 -192 77 -192 q 66 -191 69 -192 q 17 -169 34 -189 q 0 -125 1 -151 q 1 -116 0 -119 q 13 -80 3 -94 q 38 -58 22 -66 q 74 -45 54 -50 q 118 -37 94 -41 q 144 -32 131 -35 q 171 -26 157 -29 q 189 25 180 0 q 206 76 197 50 q 223 123 214 98 q 243 177 233 149 q 259 232 250 201 q 279 293 269 264 l 279 294 q 292 336 286 316 q 303 369 298 355 q 311 393 307 378 q 314 404 312 399 q 317 414 315 409 q 296 411 307 412 q 274 408 285 409 q 206 396 240 402 q 143 378 172 389 q 96 349 115 367 q 73 304 77 332 q 73 296 73 302 q 84 256 71 273 q 119 236 97 239 q 123 236 121 236 q 126 235 125 235 q 136 231 132 235 q 140 220 140 227 q 135 211 140 215 q 125 207 131 207 q 115 208 119 207 q 84 218 98 210 q 61 239 71 227 q 44 298 43 264 q 44 303 44 300 q 45 309 44 306 q 71 366 50 344 q 124 401 93 388 q 194 422 156 415 q 269 435 231 429 q 300 440 285 438 q 328 446 315 443 q 341 473 334 460 q 357 498 348 487 q 377 516 366 509 q 402 525 388 523 l 415 525 q 424 523 420 524 q 433 519 429 522 q 446 501 443 512 l 446 499 m 160 -58 q 141 -62 151 -60 q 123 -65 132 -64 q 87 -72 104 -68 q 58 -81 71 -76 q 38 -96 45 -87 q 29 -119 31 -104 q 28 -125 28 -121 q 38 -150 30 -140 q 68 -163 49 -161 q 74 -163 71 -163 q 80 -163 77 -163 q 108 -155 96 -163 q 127 -134 119 -147 q 144 -102 137 -120 q 158 -64 151 -83 l 160 -58 m 363 454 q 400 470 385 460 q 417 494 414 479 q 414 495 416 495 q 411 496 412 496 l 406 496 q 381 483 392 494 q 363 454 371 471 "},"K":{"ha":547,"x_min":-1,"x_max":705,"o":"m 702 515 q 692 497 705 502 q 661 480 677 492 q 630 453 646 469 q 600 417 615 437 q 568 378 584 398 q 532 333 550 355 q 495 292 514 311 q 455 256 475 272 q 411 230 434 240 q 436 205 427 220 q 452 173 446 191 q 460 134 458 155 q 463 93 463 114 q 460 44 463 68 q 455 -2 458 20 q 452 -30 454 -17 q 450 -52 451 -42 l 450 -54 q 460 -97 450 -81 q 474 -109 466 -104 q 495 -113 482 -113 l 496 -113 q 506 -118 502 -113 q 511 -128 511 -122 q 506 -138 511 -134 q 496 -142 502 -142 l 495 -142 q 459 -134 473 -142 q 437 -113 446 -126 q 425 -85 429 -100 q 422 -54 422 -70 l 422 -52 q 424 -27 422 -41 q 427 1 425 -14 q 431 46 429 22 q 434 93 433 69 q 431 139 434 117 q 418 178 427 161 q 393 206 410 195 q 352 217 377 216 l 350 217 q 340 221 344 217 q 336 231 336 225 q 340 241 336 237 q 350 245 344 245 q 405 259 379 245 q 455 293 431 272 q 502 341 479 315 q 545 395 524 368 q 579 437 562 417 q 612 475 595 458 q 647 505 629 492 q 684 524 665 518 q 694 524 689 526 q 702 515 700 521 m 403 427 q 391 408 395 418 q 358 332 372 374 q 332 254 343 291 q 325 232 328 243 q 318 212 321 221 q 311 191 314 200 q 305 172 308 181 q 278 94 292 132 q 243 26 264 56 q 192 -20 222 -3 q 117 -37 162 -38 l 112 -37 q 64 -25 85 -36 q 28 1 43 -15 q 0 85 -1 36 l 0 90 q 14 144 1 121 q 45 185 26 168 q 95 217 67 207 q 146 229 122 228 q 157 224 153 229 q 161 214 161 220 q 157 204 161 208 q 146 199 153 199 q 105 191 127 199 q 64 165 83 182 q 40 132 50 151 q 28 89 30 113 l 28 85 l 28 84 q 50 20 28 46 q 77 0 61 8 q 113 -9 93 -7 l 118 -9 q 180 6 155 -9 q 222 49 205 22 q 253 110 240 76 q 277 180 266 144 q 291 221 285 203 q 298 241 294 231 q 304 263 301 252 q 331 342 316 300 q 366 422 346 385 l 368 426 q 326 437 346 431 q 287 448 306 443 q 223 467 254 458 q 157 475 192 475 q 125 468 141 475 q 98 448 110 460 q 77 421 85 437 q 68 390 70 406 q 70 368 68 378 q 75 350 72 358 q 100 323 83 332 q 140 313 117 314 q 174 315 157 311 q 209 327 192 319 q 220 328 214 330 q 228 320 225 326 q 229 309 231 315 q 221 301 227 304 q 139 284 180 282 q 86 298 109 286 q 65 315 75 305 q 50 338 56 324 q 40 391 38 361 q 52 433 41 413 q 78 469 62 454 q 114 494 94 485 q 157 503 135 503 q 228 495 195 503 q 296 476 261 487 q 339 463 317 469 q 387 452 361 456 l 393 458 q 430 484 409 473 q 450 478 443 491 q 450 467 452 473 q 443 459 448 462 q 427 449 435 454 q 412 437 420 444 q 407 432 410 435 q 403 427 405 430 "},"L":{"ha":345,"x_min":0,"x_max":527,"o":"m 517 -55 q 525 -63 523 -58 q 524 -74 527 -68 q 504 -101 517 -90 q 475 -119 491 -112 q 437 -128 457 -126 q 399 -127 417 -130 q 355 -111 377 -123 q 311 -81 333 -98 q 267 -43 289 -64 q 224 0 245 -22 q 198 25 210 13 q 172 50 185 38 q 166 42 168 44 q 145 23 157 31 q 123 9 134 14 q 71 -3 97 -3 l 64 -3 q 19 14 37 -1 q 5 34 10 22 q 0 62 0 46 l 0 67 q 22 115 2 96 q 44 130 32 125 q 71 136 56 136 q 118 125 94 138 q 167 92 142 113 q 181 119 174 105 q 194 148 188 133 q 213 201 204 174 q 231 256 222 229 q 237 277 235 268 q 243 294 240 286 q 261 354 252 323 q 282 414 271 385 q 261 411 272 412 q 241 408 251 409 q 173 396 207 402 q 110 378 138 389 q 63 349 82 367 q 40 304 44 332 q 39 296 39 302 q 51 256 38 273 q 86 236 64 239 q 90 236 87 236 q 93 235 92 235 q 103 231 99 235 q 106 220 107 227 q 102 211 106 215 q 92 207 98 207 q 82 208 85 207 q 51 218 64 210 q 28 239 37 227 q 14 266 18 251 q 11 298 10 281 q 11 303 11 300 q 12 309 11 306 q 38 366 16 344 q 91 401 60 388 q 160 422 123 415 q 236 435 198 429 q 266 440 252 438 q 294 446 281 443 q 299 456 296 451 q 303 465 301 460 q 329 503 314 488 q 347 518 337 512 q 368 525 357 524 l 382 525 q 391 523 386 524 q 399 519 395 522 q 412 501 410 512 l 412 499 l 412 492 q 381 446 408 461 q 315 420 355 430 q 292 354 303 390 q 271 286 280 319 q 264 264 267 274 q 258 248 260 254 q 241 192 250 220 q 220 137 231 164 q 205 104 213 119 q 189 74 198 88 q 216 47 202 61 q 244 20 230 34 q 285 -20 264 0 q 326 -56 306 -40 q 366 -84 347 -73 q 404 -98 386 -96 q 434 -99 418 -101 q 464 -92 450 -98 q 485 -80 475 -87 q 498 -62 494 -73 q 506 -55 500 -57 q 517 -55 512 -53 m 349 484 q 330 454 338 473 q 367 470 352 460 q 384 494 381 479 l 378 496 l 372 496 q 349 484 360 494 m 144 60 q 151 68 149 66 q 110 97 130 86 q 73 108 90 109 q 43 95 55 107 q 28 66 30 83 l 28 62 q 31 46 28 52 q 39 35 34 40 q 66 26 48 27 q 71 25 67 25 q 111 35 90 25 q 129 46 120 39 q 144 60 137 52 "},"M":{"ha":720,"x_min":0,"x_max":748,"o":"m 736 465 q 747 412 747 444 q 743 366 748 390 q 728 315 738 341 q 714 274 722 296 q 698 229 707 252 q 670 152 684 192 q 643 75 656 113 q 622 6 631 38 q 608 -49 612 -26 q 607 -55 607 -52 q 607 -62 607 -58 q 616 -92 607 -81 q 644 -109 625 -106 q 654 -110 649 -110 q 664 -114 660 -110 q 668 -123 668 -117 q 664 -132 668 -128 q 654 -136 660 -136 q 646 -136 650 -136 q 639 -135 642 -136 q 594 -109 610 -130 q 580 -62 580 -88 q 580 -53 580 -58 q 581 -44 581 -49 q 595 12 585 -21 q 618 83 605 45 q 645 161 631 121 q 673 238 659 201 q 689 284 682 262 q 703 324 697 306 q 721 412 721 373 q 712 451 721 436 q 687 472 703 466 q 660 476 675 476 q 628 469 644 476 q 595 448 612 461 q 559 411 577 432 q 526 366 541 390 q 524 358 524 361 q 522 350 523 354 q 495 264 507 303 q 471 186 483 225 q 444 108 458 149 q 411 14 429 66 q 404 5 409 8 q 393 5 398 3 q 385 12 387 7 q 384 23 382 18 q 415 115 401 74 q 443 195 429 155 q 468 273 456 235 q 494 358 480 312 q 504 412 503 390 q 502 439 505 428 q 495 458 500 450 q 472 477 487 473 q 467 478 469 478 q 461 479 465 479 q 436 475 448 480 q 408 457 424 470 q 369 418 391 443 q 318 355 348 393 q 299 328 309 341 q 281 302 290 315 l 230 146 q 227 138 229 142 q 224 127 226 133 q 211 86 219 109 q 193 44 203 64 q 166 11 182 24 q 131 -2 151 -2 l 130 -2 l 130 -2 q 104 10 113 -1 q 95 39 94 22 l 95 40 l 95 41 q 107 84 96 59 q 133 133 118 109 q 163 178 148 157 q 186 209 178 199 q 189 211 188 210 q 190 214 189 212 q 191 216 191 215 q 203 234 197 223 q 218 258 210 244 q 236 285 227 271 q 255 315 245 299 l 308 476 q 263 445 287 460 q 215 415 240 429 q 165 392 191 401 q 115 380 140 382 q 102 380 108 380 q 90 381 96 380 q 55 390 71 383 q 28 409 39 397 q 0 469 3 433 q 0 478 0 473 q 1 488 0 483 q 6 497 1 494 q 16 500 11 501 q 26 495 22 500 q 29 485 30 490 q 29 471 28 477 q 47 430 31 446 q 93 410 66 412 q 113 410 102 408 q 158 420 135 411 q 205 442 182 429 q 251 471 229 455 q 293 501 273 486 q 311 514 302 508 q 327 525 319 519 q 338 527 332 528 q 347 522 344 526 q 349 509 351 515 l 311 392 q 354 444 335 423 q 390 479 374 465 q 427 502 410 496 q 463 508 444 509 q 472 507 467 507 q 480 505 476 506 q 520 473 507 497 q 529 450 526 463 q 532 421 532 437 q 578 469 555 450 q 618 493 598 484 q 660 503 639 503 q 696 498 679 503 q 736 465 722 488 m 220 207 q 217 203 218 205 q 215 199 216 201 q 212 196 214 198 q 209 192 211 195 q 187 162 201 182 q 159 121 173 143 q 134 76 145 98 q 123 39 123 54 l 123 38 q 125 28 123 31 q 130 27 128 27 l 131 27 q 154 38 144 27 q 172 66 164 50 q 186 101 180 82 q 197 136 193 120 q 200 146 199 141 q 203 155 201 151 l 220 207 "},"N":{"ha":520,"x_min":0,"x_max":545,"o":"m 1 489 q 6 498 1 494 q 16 501 10 502 q 25 496 21 500 q 27 486 28 492 l 27 471 q 46 430 29 447 q 92 410 64 414 q 102 409 97 410 q 112 410 106 409 q 158 420 134 412 q 204 443 181 429 q 250 471 228 456 q 293 501 273 487 q 311 514 302 509 q 327 526 319 520 q 337 528 332 529 q 345 522 342 527 q 347 510 349 516 l 308 390 q 350 440 328 416 q 393 479 372 463 q 409 488 401 484 q 427 496 418 492 q 463 503 444 501 q 527 478 509 503 q 545 416 545 454 q 541 372 545 395 q 531 324 537 349 q 516 274 524 299 q 499 224 507 248 l 497 218 q 489 196 494 209 q 478 167 484 182 q 456 107 468 139 q 435 44 445 75 q 418 -11 425 14 q 411 -47 411 -35 l 411 -50 q 413 -74 411 -62 q 421 -93 416 -85 q 435 -105 427 -100 q 456 -111 443 -110 l 457 -111 q 467 -114 463 -111 q 471 -123 471 -118 q 467 -133 471 -129 q 457 -137 463 -137 l 456 -137 q 421 -129 435 -137 q 399 -108 408 -121 q 387 -81 391 -96 q 384 -50 384 -66 l 384 -47 q 391 -7 384 -33 q 408 50 398 19 q 430 115 418 81 q 452 176 442 148 q 463 204 458 191 q 471 227 468 218 l 473 233 q 489 281 481 256 q 504 329 497 305 q 515 375 511 353 q 519 416 519 397 q 506 459 518 442 q 463 475 494 475 q 449 474 456 475 q 435 471 442 473 q 409 456 422 465 q 376 427 393 444 q 342 389 359 410 q 310 347 326 369 q 279 303 294 325 l 229 148 q 226 139 227 144 q 223 129 224 134 q 210 88 218 111 q 191 46 202 65 q 165 13 180 26 q 130 0 150 0 l 129 0 q 104 12 113 1 q 97 24 100 17 q 95 39 94 31 l 95 40 l 95 41 l 95 41 q 107 84 96 60 q 133 134 118 109 q 163 179 148 158 q 186 210 178 199 q 188 212 187 211 q 190 214 189 213 q 191 216 191 216 q 203 235 197 224 q 218 258 210 245 q 236 286 227 271 q 255 315 245 300 l 309 479 q 263 448 287 464 q 215 418 240 431 q 164 394 190 404 q 114 382 139 385 q 101 382 107 382 q 89 383 95 382 q 54 392 70 385 q 27 411 39 399 q 0 470 3 434 q 0 479 0 475 q 1 489 0 484 m 203 157 l 222 214 q 214 201 218 206 q 208 193 212 198 q 186 164 200 183 q 157 122 172 144 q 133 78 143 100 q 121 41 122 56 l 121 39 q 124 29 121 33 q 130 27 126 27 l 130 27 q 153 38 143 27 q 172 66 163 50 q 186 102 180 83 q 197 137 193 121 q 200 148 199 142 q 203 157 201 153 "},"O":{"ha":498,"x_min":0,"x_max":538,"o":"m 528 160 q 536 152 534 158 q 536 141 538 146 q 533 135 535 138 q 530 128 532 132 q 528 123 529 125 q 525 117 526 121 l 525 117 q 510 90 517 103 q 491 67 502 77 q 465 48 479 56 q 431 42 450 41 q 412 44 420 42 q 382 61 394 50 q 370 46 376 54 q 357 32 364 39 q 301 -11 332 5 q 235 -26 271 -26 q 197 -21 215 -26 q 161 0 175 -14 q 138 33 146 14 q 126 71 130 50 q 123 114 123 92 q 125 157 123 135 q 132 198 127 178 q 140 235 136 218 q 149 265 144 252 q 164 307 153 282 q 144 304 154 305 q 125 304 134 304 l 118 304 q 75 311 96 305 q 37 328 54 317 q 10 359 20 340 q 0 401 0 377 l 0 402 l 0 405 l 0 406 q 3 429 1 418 q 11 448 6 439 l 12 449 q 23 466 16 458 q 37 482 29 474 q 47 486 41 486 q 58 481 53 486 q 62 472 62 477 q 58 462 62 466 q 45 449 51 455 q 37 435 40 443 l 36 435 q 28 404 29 422 l 28 401 q 36 372 28 385 q 54 352 43 360 q 84 338 67 342 q 119 332 100 334 l 125 332 q 179 338 150 332 q 202 377 189 357 q 229 414 214 397 q 276 455 250 439 q 331 471 301 471 q 354 464 347 471 q 355 464 355 464 q 355 463 355 463 q 364 441 364 454 q 359 419 364 430 q 348 399 355 408 q 336 386 342 391 q 327 377 330 380 q 283 346 307 359 q 233 323 259 332 q 199 313 216 317 q 185 282 191 297 q 176 256 179 268 q 168 228 172 244 q 160 193 163 212 q 154 154 156 174 q 151 114 151 134 q 154 77 151 94 q 163 44 157 59 q 180 21 170 31 q 205 6 190 12 q 235 2 218 2 q 289 16 264 2 q 337 52 315 29 q 366 87 352 67 q 360 117 360 101 q 361 133 360 125 q 365 151 363 142 q 372 159 366 156 q 382 161 377 162 q 391 154 388 159 q 393 143 394 149 q 391 133 391 138 q 389 123 390 128 q 429 207 412 161 q 455 289 445 245 q 465 372 465 332 q 463 414 466 394 q 452 449 459 433 q 434 471 445 463 q 406 483 422 480 l 406 484 q 357 479 386 486 q 346 481 351 478 q 339 490 340 484 q 341 500 338 495 q 350 507 344 506 q 382 513 368 512 q 410 511 397 513 l 411 511 q 451 494 435 507 q 477 462 467 481 q 491 420 487 443 q 494 371 494 397 q 482 282 493 328 q 456 196 471 237 q 430 138 444 166 q 399 85 416 110 q 419 72 406 75 q 425 71 422 71 q 431 71 428 71 q 453 75 444 71 q 471 87 463 80 q 486 107 479 96 q 499 130 493 118 l 500 131 q 502 135 501 133 q 505 140 503 138 q 507 146 506 144 q 510 153 509 149 q 517 160 512 158 q 528 160 523 163 m 250 395 q 233 372 241 384 q 217 348 224 360 l 223 350 q 269 371 247 359 q 308 398 290 382 q 316 406 311 401 q 325 416 320 410 q 333 429 330 422 q 336 441 336 435 l 336 441 l 336 441 q 331 442 335 442 q 289 429 309 442 q 250 395 268 416 "},"P":{"ha":496,"x_min":-1,"x_max":528,"o":"m 484 479 q 517 433 506 459 q 528 378 528 407 q 522 329 528 354 q 514 306 519 317 q 505 282 510 294 q 479 243 494 260 q 463 228 471 235 q 445 214 454 220 q 375 193 412 194 q 340 195 357 191 q 304 205 322 199 q 296 213 299 208 q 296 224 294 218 q 303 232 298 229 q 314 232 309 234 q 345 223 330 227 q 374 221 359 220 q 429 239 403 222 q 444 249 437 243 q 457 262 451 255 q 479 296 471 277 q 488 315 484 305 q 494 336 491 326 q 499 378 499 359 q 491 421 499 401 q 465 458 483 442 q 428 480 450 471 q 375 490 406 489 q 338 488 355 491 q 304 479 320 485 q 247 445 273 469 q 217 408 229 428 q 205 387 210 398 q 195 363 200 375 q 190 345 192 353 q 186 326 188 336 q 183 307 184 317 q 181 286 182 296 q 181 280 181 282 q 180 275 180 277 l 180 263 q 176 253 180 258 q 166 249 172 249 q 156 253 160 249 q 152 263 152 258 l 152 275 q 153 288 152 284 q 155 310 153 299 q 158 331 156 321 q 168 372 162 352 q 193 423 178 399 q 227 466 208 448 q 259 490 242 479 q 295 507 275 500 q 376 519 332 520 q 439 507 412 517 q 484 479 466 496 m 352 412 q 326 345 338 385 q 300 260 313 305 q 271 167 286 214 q 238 80 256 120 q 197 9 220 39 q 144 -32 174 -20 q 143 -33 144 -33 q 119 -39 132 -37 q 52 -31 81 -45 q 24 -12 36 -24 q 6 16 13 0 q 4 24 5 20 q 1 33 3 28 q 0 59 -1 47 q 4 83 1 71 q 16 112 8 98 q 35 135 24 125 q 85 161 58 157 q 117 160 102 165 q 125 154 123 159 q 127 142 128 149 q 120 134 125 137 q 109 133 115 131 q 90 134 101 135 q 71 127 80 132 q 55 115 62 122 q 32 75 38 99 q 30 38 27 58 q 31 32 31 35 q 33 27 32 30 q 64 -5 41 5 q 114 -12 85 -16 q 133 -6 122 -9 l 134 -5 q 178 32 158 4 q 215 98 198 60 q 245 180 231 136 q 272 268 259 224 q 299 356 286 315 q 327 425 312 397 q 339 444 332 435 q 353 459 346 452 q 389 477 370 473 q 399 474 394 478 q 405 465 404 471 q 402 454 406 459 q 393 448 399 450 q 372 437 384 448 q 352 412 361 427 "},"Q":{"ha":479,"x_min":0,"x_max":651,"o":"m 642 -68 q 649 -77 647 -71 q 648 -87 651 -82 q 628 -114 641 -103 q 599 -132 615 -125 q 561 -142 581 -140 q 524 -140 541 -144 q 481 -126 501 -136 q 444 -102 462 -116 q 410 -71 427 -87 q 377 -37 393 -54 q 354 -13 366 -24 q 332 9 343 -1 q 286 -17 310 -8 q 235 -26 262 -26 q 197 -21 215 -26 q 161 0 175 -14 q 138 33 146 14 q 126 71 130 50 q 123 114 123 92 q 125 157 123 135 q 132 198 127 178 q 140 235 136 218 q 149 265 144 252 q 164 307 153 282 q 144 304 154 305 q 125 304 134 304 l 118 304 q 75 311 96 305 q 37 328 54 317 q 10 359 20 340 q 0 401 0 377 l 0 402 l 0 405 l 0 406 q 3 429 1 418 q 11 448 6 439 l 12 449 q 23 466 16 458 q 37 482 29 474 q 47 486 41 486 q 58 481 53 486 q 62 472 62 477 q 58 462 62 466 q 45 449 51 455 q 37 435 40 443 l 36 435 q 28 404 29 422 l 28 401 q 36 372 28 385 q 54 352 43 360 q 84 338 67 342 q 119 332 100 334 l 125 332 q 179 338 150 332 q 202 377 189 357 q 229 414 214 397 q 276 455 250 439 q 331 471 301 471 q 354 464 347 471 q 355 464 355 464 q 355 463 355 463 q 364 441 364 454 q 359 419 364 430 q 348 399 355 408 q 336 386 342 391 q 327 377 330 380 q 282 346 307 359 q 233 323 258 332 q 199 313 217 317 q 185 282 191 297 q 176 256 179 268 q 168 228 172 244 q 160 193 163 212 q 154 154 156 174 q 151 114 151 134 q 154 77 151 94 q 163 44 157 59 q 180 21 170 31 q 205 6 190 12 q 235 2 218 2 q 273 9 254 2 q 309 27 292 16 q 283 41 296 36 q 257 45 271 45 q 242 41 250 45 q 229 33 235 39 q 218 29 224 29 q 208 34 212 29 q 204 44 204 38 q 209 54 205 50 q 219 62 214 58 q 231 68 224 65 q 256 73 243 73 q 295 67 277 75 q 331 46 313 60 l 337 52 q 389 122 366 81 q 429 207 412 162 q 455 289 445 245 q 465 372 465 332 q 463 414 466 394 q 452 449 459 433 q 434 471 445 463 q 406 483 422 480 l 406 484 q 357 479 386 486 q 346 481 351 478 q 339 490 340 484 q 341 500 338 495 q 350 507 344 506 q 382 513 368 512 q 410 511 397 513 l 411 511 q 451 494 435 507 q 477 462 467 481 q 491 420 487 443 q 494 371 494 397 q 482 282 493 328 q 456 196 471 237 q 412 106 437 149 q 357 32 388 64 l 353 28 q 376 6 365 18 q 397 -17 387 -5 q 428 -48 412 -33 q 459 -77 443 -64 q 493 -100 475 -90 q 528 -112 510 -109 q 558 -113 543 -115 q 588 -105 574 -111 q 609 -93 600 -100 q 623 -76 618 -85 q 630 -68 625 -71 q 642 -68 636 -66 m 250 395 q 233 372 241 384 q 217 348 224 360 l 223 350 q 269 371 247 359 q 308 398 290 382 q 316 406 311 401 q 325 416 320 410 q 333 429 330 422 q 336 441 336 435 l 336 441 l 336 441 q 331 442 335 442 q 289 429 309 442 q 250 395 268 416 "},"R":{"ha":492,"x_min":-3,"x_max":516,"o":"m 478 456 q 507 412 498 437 q 515 361 516 388 l 515 361 q 498 299 513 330 q 454 245 484 269 q 380 210 424 222 q 417 156 408 190 q 426 84 427 123 q 424 39 426 62 q 419 -3 422 17 q 416 -30 418 -18 q 414 -52 415 -42 l 414 -54 l 415 -54 q 417 -78 415 -66 q 425 -97 419 -89 q 438 -109 430 -104 q 459 -113 446 -113 l 460 -113 q 470 -118 466 -113 q 475 -128 475 -122 q 470 -138 475 -134 q 460 -142 466 -142 l 459 -142 q 424 -134 437 -142 q 401 -113 410 -126 q 389 -85 393 -100 q 386 -54 386 -70 l 386 -52 q 388 -27 387 -40 q 391 1 389 -14 q 395 42 393 20 q 397 84 397 63 q 394 127 397 106 q 382 164 391 148 q 356 190 372 180 q 313 199 340 199 l 313 199 l 312 199 l 311 199 l 311 199 l 310 199 l 309 200 l 309 200 l 308 200 l 307 201 l 307 201 l 306 201 l 305 201 l 305 202 q 304 203 304 202 l 304 203 l 303 203 l 302 204 l 302 205 q 302 205 302 205 q 301 205 302 205 q 300 207 301 206 q 300 208 300 207 l 300 210 q 299 211 300 210 l 299 212 l 299 213 l 299 214 l 299 215 l 299 216 l 299 216 l 299 217 q 300 218 299 217 l 300 218 l 300 219 q 300 220 300 219 l 300 220 l 301 220 l 301 221 q 302 222 301 222 q 302 222 302 222 l 302 223 q 303 224 302 223 q 304 224 304 224 l 304 224 q 305 225 304 225 q 307 226 306 226 l 307 227 l 308 227 q 309 227 308 227 l 311 227 l 311 228 l 312 228 l 313 228 q 384 240 353 229 q 435 268 414 251 q 472 312 460 288 q 486 361 485 336 l 486 363 q 480 402 487 383 q 458 437 473 421 q 419 462 442 452 q 364 473 396 471 l 363 473 l 355 473 q 281 458 315 473 q 223 416 248 444 q 184 348 198 388 q 168 258 170 309 q 168 253 168 256 q 168 246 168 250 q 163 236 168 240 q 153 232 159 232 q 143 236 148 232 q 139 246 139 240 q 139 252 139 249 q 140 259 139 255 q 157 359 141 315 q 202 435 174 404 q 270 485 231 468 q 355 502 309 502 q 358 502 357 502 q 363 501 360 501 l 366 501 q 431 488 404 500 q 478 456 459 476 m 359 420 q 349 409 354 415 q 340 395 343 402 q 314 333 326 368 q 291 260 302 298 q 266 180 279 220 q 235 105 252 140 q 195 44 218 71 q 143 7 173 18 q 131 3 137 5 q 119 0 125 1 q 52 9 83 -6 q 7 55 20 24 q 6 56 7 56 q 6 56 6 56 q 4 64 5 60 q 1 73 3 68 q 4 122 -3 97 l 4 123 q 16 151 8 138 q 35 175 24 164 q 85 201 58 197 q 117 200 100 204 q 125 193 123 199 q 127 182 128 188 q 120 174 125 177 q 109 172 115 171 q 90 173 100 175 q 55 154 71 170 q 32 115 38 138 l 32 115 q 30 78 26 97 q 33 66 31 73 l 33 66 q 64 35 43 44 q 114 28 87 24 q 123 31 119 30 q 133 34 128 32 q 177 67 158 43 q 212 123 197 91 q 240 193 227 155 q 264 269 252 231 q 288 344 275 308 q 314 408 300 380 q 326 426 319 418 q 340 442 333 435 q 376 460 357 456 q 387 457 382 461 q 393 448 391 454 q 390 437 394 442 q 380 431 387 433 q 359 420 370 429 "},"S":{"ha":374,"x_min":-2,"x_max":345,"o":"m 336 490 q 345 457 345 477 q 344 453 344 455 q 343 449 344 451 l 341 441 l 341 439 q 288 378 326 396 q 276 372 282 374 q 263 368 270 370 q 276 330 269 349 q 294 291 284 311 q 311 252 302 271 q 326 211 319 232 q 335 170 332 191 q 336 126 338 149 l 336 125 l 336 124 q 311 48 331 79 q 262 -2 291 18 q 201 -29 234 -22 q 136 -33 168 -37 l 135 -33 q 129 -33 132 -33 q 124 -32 127 -33 q 69 -12 93 -26 q 28 25 45 3 q 5 73 13 47 q 1 125 -2 99 q 1 130 1 127 q 2 134 1 132 q 20 186 7 161 q 54 229 33 211 q 97 253 73 245 q 149 259 121 262 q 183 248 167 258 q 212 223 200 239 q 228 191 222 209 q 231 153 233 173 q 226 143 231 146 q 216 140 222 139 q 206 145 210 140 q 203 155 202 149 q 200 183 204 170 q 189 206 196 196 q 170 223 181 217 q 147 231 159 229 q 106 226 125 233 q 73 207 87 220 q 44 172 55 193 q 30 129 33 152 q 30 126 30 127 q 29 122 29 124 q 32 80 26 101 q 52 42 38 60 q 84 13 64 24 q 129 -4 103 1 q 133 -4 131 -4 q 138 -5 136 -5 l 138 -5 q 194 -2 165 -8 q 246 21 222 5 q 287 63 270 37 q 307 127 303 90 l 307 128 l 307 129 q 298 206 311 168 q 268 279 284 243 q 250 322 258 301 q 235 363 241 342 q 213 361 224 361 q 189 361 202 361 q 135 370 162 362 q 81 394 107 377 q 41 429 60 408 q 8 480 22 450 q 7 491 5 486 q 15 499 9 496 q 26 500 20 502 q 34 492 31 498 q 62 448 46 467 q 97 418 78 430 q 142 397 119 404 q 189 390 165 391 q 211 390 201 389 q 230 391 220 390 q 229 418 229 405 q 234 444 230 431 q 238 458 235 452 q 245 471 241 465 q 245 472 245 471 q 264 493 254 486 q 285 505 274 501 q 307 507 295 509 l 308 507 q 336 490 326 505 m 316 460 q 313 474 317 468 q 304 479 310 479 l 304 479 q 294 477 300 479 q 281 471 287 475 q 270 457 275 465 l 269 456 q 261 437 264 448 q 258 397 256 418 q 267 400 262 398 q 275 403 271 401 q 314 448 303 417 q 315 451 315 450 q 315 454 315 453 q 316 457 315 456 q 316 460 316 458 "},"T":{"ha":420,"x_min":-1,"x_max":618,"o":"m 605 503 q 618 477 618 492 q 593 444 616 453 q 532 436 570 435 q 479 440 508 437 q 419 450 450 444 q 398 423 408 438 q 379 385 388 406 q 361 340 370 363 q 345 294 353 317 q 332 250 338 271 q 325 228 328 238 q 318 208 321 217 q 311 187 314 197 q 304 168 308 178 q 278 90 292 128 q 243 23 264 52 q 192 -24 222 -7 q 117 -41 162 -42 q 112 -41 113 -41 q 64 -29 85 -39 q 28 -3 43 -19 q 0 81 -1 32 l 0 86 q 14 140 1 117 q 45 182 26 164 q 95 214 67 203 q 146 224 122 224 q 157 220 153 224 q 161 210 161 216 q 157 200 161 204 q 146 196 153 196 q 105 187 127 196 q 64 161 83 178 q 40 128 50 147 q 28 85 30 109 l 28 81 q 34 45 28 62 q 50 16 39 29 q 77 -3 61 4 q 113 -12 93 -11 q 116 -13 115 -12 q 117 -13 117 -13 q 179 2 154 -14 q 222 45 205 18 q 253 106 240 72 q 277 177 266 140 q 284 198 281 188 q 291 217 288 208 q 297 236 294 226 q 304 259 300 247 q 318 303 311 279 q 335 351 326 327 q 353 397 343 374 q 374 437 363 419 q 379 447 376 442 q 386 456 382 451 q 310 472 346 463 q 251 486 275 480 q 235 490 241 488 q 222 492 228 491 q 179 501 201 497 q 138 503 158 505 q 103 494 120 502 q 72 469 87 487 q 56 444 62 459 q 50 418 51 432 q 56 378 49 395 q 81 352 64 361 q 121 341 98 342 q 156 344 138 340 q 190 355 174 348 q 201 356 195 358 q 209 349 207 354 q 210 338 212 343 q 202 330 208 332 q 120 313 161 311 q 68 327 90 314 q 31 366 42 340 q 22 391 25 378 q 21 420 20 404 q 29 456 22 439 q 50 488 38 474 q 91 520 69 511 q 136 532 113 530 q 182 529 159 533 q 229 521 205 526 q 240 518 232 519 q 258 513 248 516 q 325 498 284 507 q 410 480 366 488 q 449 504 428 495 q 490 518 469 513 q 556 522 526 526 q 585 515 572 520 q 605 503 597 511 m 533 465 q 573 467 557 464 q 589 477 589 470 q 586 482 589 480 q 553 494 576 490 q 526 494 541 495 q 496 490 512 494 q 473 484 485 488 q 451 473 462 479 q 494 468 473 470 q 533 465 515 465 "},"U":{"ha":526,"x_min":-1,"x_max":569,"o":"m 557 160 q 564 140 569 153 q 553 120 559 131 q 533 79 544 100 q 508 40 522 58 q 477 11 494 22 q 437 -1 460 -1 q 401 17 411 -1 q 391 64 391 35 q 391 74 391 69 q 391 85 391 79 q 383 72 387 78 q 374 58 379 65 q 319 3 350 24 q 250 -19 289 -19 l 249 -19 q 213 -10 227 -18 q 190 12 199 -2 q 178 39 182 24 q 175 71 175 55 l 175 74 q 178 105 175 87 q 187 146 182 124 l 187 146 q 203 200 194 172 q 221 257 212 229 q 227 277 224 269 q 233 294 229 286 q 251 354 241 323 q 271 414 260 385 q 251 411 261 412 q 230 408 241 409 q 162 396 196 402 q 99 378 127 389 q 52 349 71 367 q 29 304 33 332 q 29 300 29 302 q 28 296 28 298 q 40 256 27 273 q 75 236 53 239 q 82 235 78 235 q 92 231 88 235 q 96 220 96 227 q 91 211 96 215 q 81 207 87 206 q 71 208 75 207 q 40 218 54 210 q 17 239 26 227 q 0 298 -1 264 q 0 303 0 300 q 1 309 1 306 q 27 366 5 344 q 80 401 49 388 q 150 422 112 415 q 225 435 187 429 q 255 440 241 438 q 283 446 270 443 q 288 456 286 451 q 292 465 290 460 q 304 486 298 476 q 318 504 311 496 q 336 518 326 512 q 358 525 347 524 l 371 525 q 380 523 376 524 q 389 519 385 522 q 397 511 393 515 q 401 501 400 507 l 401 499 q 401 492 402 496 q 371 446 397 461 q 304 420 344 430 q 281 354 292 390 q 260 286 269 319 q 253 264 256 274 q 248 248 250 254 l 248 248 q 230 193 239 220 q 215 139 222 165 l 215 138 q 207 101 210 118 q 203 74 203 85 l 203 73 l 203 71 q 206 47 203 58 q 214 27 208 36 q 228 15 219 20 q 250 10 236 10 l 250 10 q 306 28 281 10 q 351 75 330 47 q 390 142 373 105 q 423 213 408 178 q 424 214 423 214 q 424 216 424 214 l 425 217 q 438 255 429 230 q 459 314 447 280 q 492 402 475 355 q 526 496 509 449 q 534 505 528 502 q 545 505 539 507 q 552 498 550 503 q 553 487 555 492 q 517 388 534 435 q 486 304 500 341 q 465 247 474 271 q 452 208 456 222 l 451 206 q 450 203 451 204 q 450 203 450 203 q 450 202 450 203 q 441 176 446 193 q 431 141 436 160 q 423 101 427 121 q 419 64 419 81 q 423 38 419 48 q 437 28 427 28 q 466 38 452 28 q 490 63 479 48 q 510 97 501 79 q 528 132 519 115 q 533 143 531 138 q 538 153 535 149 q 547 161 541 159 q 557 160 552 163 m 338 484 q 328 470 333 478 q 319 454 323 463 q 356 470 341 460 q 373 494 370 479 q 368 496 372 495 l 367 496 l 361 496 q 338 484 349 494 "},"V":{"ha":484,"x_min":-1,"x_max":642,"o":"m 627 534 q 637 529 633 534 q 641 519 642 525 q 637 509 641 513 q 627 505 633 505 q 579 484 602 505 q 536 427 557 463 q 495 346 515 392 q 455 253 475 300 q 411 151 433 201 q 364 62 389 101 q 311 -2 339 22 q 249 -26 283 -26 q 210 -16 224 -26 q 188 12 195 -5 q 179 52 180 29 q 181 99 178 74 q 189 144 184 121 q 199 186 193 166 q 210 223 205 207 q 219 250 216 240 q 225 271 222 262 q 231 290 228 280 q 251 352 241 320 q 271 414 260 385 q 251 411 261 412 q 230 408 241 409 q 162 396 196 402 q 99 378 127 389 q 52 349 71 367 q 29 304 33 332 q 29 300 29 302 q 28 296 28 298 q 40 256 27 273 q 75 236 53 239 q 82 235 78 235 q 92 231 88 235 q 96 220 96 227 q 91 211 96 215 q 81 207 87 206 q 71 208 75 207 q 40 218 54 210 q 17 239 26 227 q 0 298 -1 264 q 0 303 0 300 q 1 309 1 306 q 27 366 5 344 q 80 401 49 388 q 150 422 112 415 q 225 435 187 429 q 255 440 241 438 q 283 446 270 443 q 288 456 286 451 q 292 465 290 460 q 304 486 298 476 q 318 504 311 496 q 336 518 326 512 q 358 525 347 524 l 371 525 q 380 523 376 524 q 389 519 385 522 q 397 511 393 515 q 401 501 400 507 l 401 499 q 401 492 402 496 q 371 446 397 461 q 304 420 344 430 q 280 352 292 389 q 258 281 269 315 q 252 259 255 269 q 246 241 248 248 l 246 241 q 238 215 243 231 q 227 179 233 199 q 216 138 221 160 q 210 96 212 117 q 208 61 208 77 q 212 31 208 44 q 225 11 216 18 q 249 3 234 3 q 299 26 275 3 q 346 85 323 48 q 388 168 368 121 q 429 264 408 215 q 471 363 450 315 q 517 450 493 412 q 568 511 541 488 q 627 534 595 534 m 338 484 q 328 470 333 478 q 319 454 323 463 q 356 470 341 460 q 373 494 370 479 q 368 496 372 495 l 367 496 l 361 496 q 338 484 349 494 "},"W":{"ha":644,"x_min":-1,"x_max":783,"o":"m 768 534 q 778 529 774 534 q 782 519 783 525 q 778 509 782 513 q 768 505 774 505 q 723 484 743 505 q 685 428 703 463 q 652 347 668 393 q 622 254 637 302 q 588 152 606 202 q 550 62 571 102 q 503 -2 529 22 q 441 -26 476 -26 q 426 -24 434 -26 q 383 9 397 -18 q 371 67 371 32 q 371 81 371 74 q 372 95 372 87 q 344 47 359 69 q 314 8 330 24 q 282 -17 298 -8 q 248 -26 265 -26 l 247 -26 q 211 -18 225 -26 q 188 3 197 -10 q 176 32 180 16 q 173 64 173 47 l 173 66 q 177 99 173 79 q 186 142 180 118 q 202 199 193 169 q 221 257 212 229 q 227 277 224 269 q 233 294 229 286 q 251 354 241 323 q 271 414 260 385 q 251 411 261 412 q 230 408 241 409 q 162 396 196 402 q 99 378 127 389 q 52 349 71 367 q 29 304 33 332 q 29 300 29 302 q 28 296 28 298 q 40 256 27 273 q 75 236 53 239 q 82 235 78 235 q 92 231 88 235 q 96 220 96 227 q 92 211 96 215 q 81 207 87 206 q 71 208 75 207 q 40 218 54 210 q 17 239 26 227 q 0 298 -1 264 q 0 303 0 300 q 1 309 1 306 q 27 366 5 344 q 80 401 49 388 q 150 422 112 415 q 225 435 187 429 q 255 440 241 438 q 283 446 270 443 q 288 456 286 451 q 292 465 290 460 q 304 486 298 476 q 318 504 311 496 q 336 518 326 512 q 358 525 347 524 l 371 525 q 380 523 376 524 q 389 519 385 522 q 397 511 393 515 q 401 501 400 507 l 401 499 q 401 492 402 496 q 371 446 397 461 q 304 420 344 430 q 281 354 292 390 q 260 286 269 319 q 253 264 256 274 q 248 248 250 254 l 248 248 q 230 191 239 220 q 214 135 221 161 q 205 95 209 113 q 201 66 201 77 l 201 64 q 204 39 201 51 q 212 20 206 28 q 248 2 222 3 l 248 2 q 278 13 263 2 q 308 44 293 24 q 337 89 323 63 q 365 144 351 115 q 394 213 380 178 q 420 282 408 249 q 436 331 428 308 q 450 375 444 355 l 450 376 q 456 392 454 385 q 462 408 459 400 q 468 428 465 419 q 472 439 471 436 q 479 447 474 444 q 490 448 485 450 q 498 440 496 446 q 499 429 501 435 q 494 413 496 420 q 489 399 492 406 q 484 383 486 391 q 477 366 481 375 q 464 323 472 347 q 447 274 456 300 q 425 196 435 235 q 406 122 414 157 q 401 94 403 107 q 399 67 399 80 q 408 22 399 38 q 432 4 417 7 q 441 3 435 3 q 490 26 468 3 q 530 85 511 48 q 564 168 548 121 q 595 263 579 214 q 628 363 611 314 q 665 450 645 412 q 711 511 686 488 q 768 534 736 534 m 338 484 q 328 470 333 478 q 319 454 323 463 q 356 470 341 460 q 373 494 370 479 q 368 496 372 495 l 367 496 l 361 496 q 338 484 349 494 "},"X":{"ha":509,"x_min":0,"x_max":696,"o":"m 692 505 q 696 495 696 501 q 692 486 696 489 q 681 481 687 481 q 671 486 675 481 q 638 496 659 499 q 612 487 625 494 q 586 469 598 479 q 533 405 562 448 q 469 310 503 363 q 424 243 447 277 q 377 176 401 210 q 385 99 380 136 q 393 24 389 61 q 396 -1 394 11 q 399 -24 397 -13 q 403 -45 401 -35 q 408 -64 405 -55 q 426 -99 414 -88 q 452 -110 437 -110 q 464 -108 458 -110 q 470 -105 467 -106 q 475 -102 472 -104 q 485 -99 479 -98 q 494 -104 491 -100 q 498 -115 498 -109 q 492 -125 497 -121 q 484 -131 488 -128 q 473 -135 479 -134 q 452 -138 462 -138 q 428 -134 440 -138 q 406 -119 416 -130 q 391 -99 397 -111 q 380 -72 384 -87 q 375 -51 377 -62 q 371 -28 372 -40 q 367 -4 369 -17 q 364 22 366 8 q 358 81 361 51 q 351 142 355 111 q 295 76 324 106 q 236 22 267 45 q 174 -14 205 -1 q 109 -27 142 -27 q 102 -27 106 -27 q 96 -26 99 -27 q 54 -14 72 -24 q 24 9 36 -5 q 0 77 0 39 q 0 82 0 79 q 1 87 0 84 q 4 106 2 97 q 12 125 7 115 q 34 158 20 142 q 44 162 38 162 q 54 159 50 163 q 59 149 59 155 q 55 138 59 142 q 37 113 43 125 q 29 84 30 98 q 28 77 28 82 q 46 28 28 49 q 98 2 64 6 q 103 2 101 2 q 109 1 106 1 q 171 16 140 1 q 232 56 202 31 q 291 114 262 81 q 348 184 320 147 l 348 184 q 338 347 340 267 q 337 387 337 368 q 339 422 338 406 q 314 418 327 420 q 289 415 302 416 q 231 406 259 411 q 178 390 202 401 q 138 359 155 378 q 116 307 121 340 q 115 302 115 306 q 118 282 115 292 q 128 265 122 273 q 158 245 141 248 q 162 245 159 245 q 172 240 168 244 q 176 230 176 236 q 171 220 175 224 q 161 216 167 216 q 154 217 156 216 q 128 227 140 219 q 106 248 115 235 q 91 274 96 259 q 87 304 85 288 q 87 312 87 309 q 113 376 94 353 q 159 414 132 400 q 219 433 186 427 q 285 444 252 439 q 315 448 300 446 q 344 452 330 450 q 347 468 345 459 q 370 509 355 494 q 409 525 385 524 q 434 519 424 526 q 446 495 445 511 q 428 457 446 473 q 408 444 420 450 q 385 433 397 437 q 377 431 380 432 q 369 429 373 430 q 366 391 366 411 q 366 348 366 371 q 369 285 368 317 q 374 220 370 253 q 410 274 392 247 q 444 326 427 300 q 510 424 479 380 q 567 490 541 467 q 600 513 583 504 q 634 524 616 522 q 666 523 650 527 q 692 505 681 518 m 410 496 q 375 460 386 496 l 376 460 q 394 468 385 464 q 408 478 403 473 q 417 494 417 486 l 417 496 q 410 496 416 496 "},"Y":{"ha":519,"x_min":-1,"x_max":559,"o":"m 549 161 q 557 153 555 158 q 557 142 559 147 q 522 74 541 103 q 483 24 503 45 q 440 -13 463 2 q 395 -37 418 -27 q 377 -44 386 -41 q 359 -50 368 -47 l 351 -74 q 336 -114 344 -94 q 317 -151 329 -134 q 288 -180 305 -168 q 246 -192 271 -191 q 238 -192 242 -192 q 231 -191 235 -192 q 182 -169 199 -189 q 165 -125 167 -151 q 166 -116 165 -119 q 178 -80 168 -94 q 203 -58 188 -66 q 239 -45 219 -50 q 283 -37 260 -41 q 310 -32 296 -35 q 337 -26 323 -29 q 354 24 345 -3 q 374 81 364 52 q 325 37 352 53 q 264 20 298 20 l 262 20 q 227 28 241 20 q 203 50 212 37 q 192 78 195 62 q 188 110 188 94 l 188 111 l 189 113 q 191 139 189 123 q 199 176 194 156 q 210 220 203 197 q 224 269 216 244 q 248 346 235 307 q 272 414 260 384 q 251 411 262 412 q 230 408 241 409 q 162 396 196 402 q 99 378 127 389 q 52 349 71 367 q 29 304 33 332 q 29 300 29 302 q 28 296 28 298 q 40 256 27 273 q 75 236 53 239 q 82 235 78 235 q 92 231 88 235 q 96 220 96 227 q 92 211 96 215 q 81 207 87 206 q 71 208 75 207 q 40 218 54 210 q 17 239 26 227 q 0 298 -1 264 q 0 303 0 300 q 1 309 1 306 q 27 366 5 344 q 80 401 49 388 q 150 422 112 415 q 225 435 187 429 q 256 440 241 438 q 284 446 271 443 q 289 456 286 451 q 292 465 291 461 q 304 486 298 476 q 318 504 311 496 q 336 518 326 512 q 358 525 347 524 l 371 525 q 380 523 376 524 q 389 519 385 522 q 397 511 393 515 q 401 501 400 507 l 401 499 q 401 492 402 496 q 371 446 397 462 q 305 421 344 430 q 279 348 293 391 q 251 260 264 305 q 237 214 243 237 q 227 172 231 191 q 220 137 222 153 q 217 113 217 121 l 217 110 q 219 86 217 97 q 227 66 222 75 q 241 54 233 58 q 262 49 250 49 l 264 49 q 319 67 294 49 q 364 114 344 85 q 404 181 386 144 q 437 253 422 218 q 448 281 442 266 q 459 314 453 296 q 492 402 475 355 q 526 496 509 449 q 534 505 528 502 q 545 505 539 507 q 552 498 550 503 q 553 487 555 492 q 517 388 534 435 q 486 304 500 341 q 474 272 479 287 q 465 243 469 256 q 464 242 464 243 q 457 223 460 231 q 452 208 454 214 l 451 207 q 437 166 444 185 q 422 127 430 147 q 395 54 409 91 q 371 -16 382 16 q 384 -10 377 -14 q 425 11 405 -2 q 463 43 444 24 q 498 90 481 63 q 530 153 515 117 q 538 161 533 159 q 549 161 544 163 m 338 484 q 328 470 333 478 q 319 454 323 463 q 356 470 341 460 q 373 494 370 479 q 368 496 372 495 l 367 496 l 361 496 q 338 484 349 494 m 326 -58 q 307 -62 317 -60 q 289 -65 298 -64 q 253 -72 269 -68 q 223 -81 236 -76 q 203 -96 211 -87 q 195 -119 196 -104 q 194 -125 194 -121 q 203 -150 195 -140 q 234 -163 214 -161 q 239 -163 237 -163 q 245 -163 242 -163 q 273 -155 262 -163 q 294 -134 285 -147 q 310 -102 303 -120 q 323 -64 317 -83 l 326 -58 "},"Z":{"ha":425,"x_min":0,"x_max":597,"o":"m 586 511 q 593 478 597 498 q 585 461 592 469 q 564 448 578 453 q 543 444 555 445 q 515 444 530 443 q 485 449 500 446 q 452 456 469 452 q 448 450 450 453 q 444 444 446 448 q 420 411 434 431 q 388 365 406 391 q 354 315 372 341 q 318 264 336 290 q 284 215 300 239 q 256 173 269 192 q 248 162 251 166 q 242 153 245 157 q 216 113 229 133 q 187 75 202 94 q 216 48 201 62 q 244 20 230 35 q 285 -20 264 0 q 326 -56 306 -40 q 366 -84 347 -73 q 404 -98 386 -96 q 434 -99 418 -101 q 464 -92 450 -98 q 485 -80 475 -87 q 498 -62 494 -73 q 506 -55 500 -57 q 517 -55 512 -53 q 525 -63 523 -58 q 524 -74 527 -68 q 504 -101 517 -90 q 475 -119 491 -112 q 437 -128 457 -126 q 399 -127 417 -130 q 355 -111 377 -123 q 311 -81 333 -98 q 267 -43 289 -64 q 224 0 245 -22 q 169 53 195 28 q 160 43 164 47 q 151 34 155 39 q 115 7 135 18 q 71 -3 93 -3 l 64 -3 q 19 14 37 -1 q 5 34 10 22 q 0 62 0 46 l 0 67 q 22 115 2 96 q 44 130 32 125 q 71 136 56 136 q 118 125 94 138 q 165 94 141 113 q 193 131 180 111 q 218 168 205 150 q 225 180 222 174 q 232 189 229 186 q 261 232 245 208 q 294 280 277 255 q 330 332 312 306 q 364 381 348 357 q 398 429 383 408 q 420 460 412 450 l 422 465 l 412 467 q 331 489 372 479 q 249 496 289 498 q 191 471 214 494 q 170 441 177 458 q 163 406 163 424 q 183 360 165 380 q 187 350 187 356 q 182 340 186 344 q 172 336 178 336 q 162 340 166 336 q 142 371 149 355 q 135 404 136 387 q 143 452 133 429 q 171 492 153 475 q 205 515 186 506 q 247 525 224 524 q 335 517 291 528 q 420 495 378 507 q 431 491 425 493 q 443 488 437 490 q 480 515 460 505 q 517 528 499 525 q 555 529 537 532 q 586 511 574 525 m 131 55 q 139 63 135 59 q 147 72 143 67 q 108 98 127 88 q 72 108 89 109 q 43 95 54 106 q 28 66 30 83 l 28 62 q 31 46 28 52 q 39 35 34 40 q 66 26 48 27 q 71 25 67 25 q 86 27 79 25 q 102 33 94 30 q 131 55 115 41 m 565 483 q 563 494 566 490 q 549 501 559 499 q 522 500 537 503 q 500 493 511 498 q 477 479 488 488 q 497 475 488 477 q 517 473 507 473 q 539 472 530 471 q 555 475 548 473 q 565 483 565 479 "},"!":{"ha":189,"x_min":38,"x_max":239,"o":"m 229 497 q 237 490 234 495 q 237 479 239 484 l 106 106 q 98 98 104 100 q 87 97 93 95 q 80 104 82 99 q 79 115 77 110 l 211 488 q 218 496 212 494 q 229 497 223 499 m 61 41 q 78 34 71 41 q 85 18 85 27 q 78 1 85 8 q 61 -5 71 -5 q 45 1 52 -5 q 38 18 38 8 q 45 34 38 27 q 61 41 52 41 "},"\"":{"ha":174,"x_min":55,"x_max":195,"o":"m 96 467 q 116 454 111 467 q 119 426 122 441 q 104 399 116 411 q 70 388 92 387 q 58 390 61 389 q 55 395 56 392 q 57 399 55 398 q 65 399 59 400 q 82 402 75 397 q 92 417 89 408 q 93 420 93 420 q 91 421 93 420 q 78 429 83 423 q 73 444 73 435 q 80 460 73 453 q 96 467 87 467 m 170 467 q 190 454 184 467 q 192 426 195 441 q 177 399 189 411 q 143 388 165 387 q 132 390 134 389 q 128 395 129 392 q 130 399 128 398 q 138 399 132 400 q 155 402 149 397 q 165 417 162 408 q 166 420 166 420 q 164 421 166 420 q 152 429 157 423 q 146 444 146 435 q 153 460 146 453 q 170 467 160 467 "},"#":{"ha":363,"x_min":30,"x_max":330,"o":"m 320 310 q 327 306 324 310 q 330 296 330 302 q 327 286 330 290 q 320 281 324 281 l 252 283 l 231 224 l 301 222 q 308 218 305 222 q 311 208 311 214 q 308 198 311 202 q 301 194 305 193 l 221 195 l 174 63 q 167 55 173 58 q 156 54 161 52 q 148 62 151 56 q 148 73 146 67 l 191 195 l 120 197 l 73 63 q 66 55 71 58 q 55 54 60 52 q 47 62 50 56 q 46 73 44 67 l 90 197 l 39 198 q 33 202 35 198 q 30 212 30 207 q 33 222 30 218 q 39 227 35 227 l 100 226 l 121 285 l 58 286 q 52 290 54 286 q 49 300 49 294 q 52 311 49 307 q 58 315 54 315 l 131 313 l 178 446 q 185 454 180 451 q 196 454 191 456 q 204 447 201 452 q 205 436 206 441 l 161 313 l 232 312 l 279 446 q 287 454 281 451 q 298 454 292 456 q 306 447 303 452 q 306 436 308 441 l 262 311 l 320 310 m 222 283 l 151 284 l 130 225 l 201 224 l 222 283 "},"$":{"ha":309,"x_min":-3,"x_max":282,"o":"m 269 423 q 279 394 277 410 q 281 361 282 378 q 280 357 280 359 q 279 352 280 355 q 274 343 279 347 q 263 340 269 339 q 254 346 258 341 q 251 356 250 350 q 252 363 252 358 q 251 388 253 376 q 244 410 250 400 q 218 429 237 425 l 161 271 q 191 240 178 256 q 211 207 203 224 q 222 140 228 171 q 193 84 216 105 q 140 56 170 63 q 116 52 128 53 q 92 53 104 52 q 83 54 86 54 l 70 18 q 63 10 68 13 q 52 9 58 7 q 44 17 47 12 q 43 28 41 22 l 56 64 q 51 66 54 65 q 46 69 49 68 q 10 111 23 84 q 1 176 -3 137 q 6 186 2 182 q 17 189 11 190 q 26 184 22 189 q 29 174 31 179 q 35 123 26 143 q 62 94 45 104 q 64 92 63 93 q 66 91 64 92 l 128 264 q 112 284 119 273 q 100 304 104 294 q 89 364 85 335 q 101 404 91 386 q 128 436 112 422 q 161 454 142 448 q 199 460 179 460 l 211 494 q 218 502 213 500 q 229 503 224 505 q 237 495 235 501 q 237 484 239 490 l 228 456 q 253 444 243 452 q 269 423 263 435 m 185 195 q 171 218 180 206 q 151 241 162 230 l 93 82 q 94 82 94 82 q 96 81 94 81 q 133 84 115 79 q 172 105 155 90 q 194 145 189 120 q 185 195 198 167 m 188 431 q 166 425 176 430 q 146 414 155 420 q 126 391 134 404 q 117 361 119 377 q 118 339 116 351 q 125 317 120 328 q 139 294 130 307 l 188 431 "},"%":{"ha":280,"x_min":23,"x_max":264,"o":"m 214 454 q 222 447 219 452 q 222 436 224 441 l 91 63 q 83 55 89 58 q 73 54 78 52 q 64 62 67 56 q 64 73 62 67 l 195 446 q 203 454 197 451 q 214 454 208 456 m 100 285 q 80 268 90 275 q 57 262 69 262 q 47 263 54 262 q 28 281 34 267 q 23 304 23 290 q 31 350 23 326 q 42 378 35 364 q 58 401 49 391 q 76 418 66 412 q 98 425 86 424 q 111 422 105 425 q 130 406 123 418 q 136 382 136 395 q 134 361 136 372 q 129 338 132 349 q 117 310 124 323 q 100 285 109 296 m 56 290 q 79 304 66 290 q 92 324 86 313 q 102 347 98 335 q 107 381 108 366 q 105 393 107 389 q 102 395 102 395 q 101 396 101 395 q 99 395 100 396 q 79 382 89 395 q 66 364 72 375 q 58 342 61 353 q 52 305 52 322 q 54 292 52 297 q 56 290 56 290 l 56 290 m 263 205 q 262 183 264 195 q 256 160 260 172 q 244 132 252 146 q 227 107 237 118 q 207 91 218 97 q 184 84 197 84 q 179 84 182 84 q 174 85 176 84 q 155 103 161 90 q 151 127 151 113 q 158 172 149 148 q 170 200 163 186 q 184 224 176 214 q 203 240 193 233 q 225 247 214 246 q 238 245 232 247 q 258 228 251 241 q 263 205 263 218 m 229 169 q 235 203 235 188 q 232 215 235 212 q 229 218 231 217 l 227 218 q 207 205 216 218 q 194 186 199 197 q 185 164 189 176 q 179 127 179 144 q 181 115 179 119 q 182 113 181 114 q 182 113 182 113 l 184 113 q 206 126 194 113 q 219 146 214 134 q 229 169 225 157 "},"&":{"ha":392,"x_min":50,"x_max":375,"o":"m 367 227 q 374 218 372 223 q 372 207 375 212 q 331 144 352 175 q 283 90 310 114 q 260 71 273 80 q 267 52 264 61 q 272 35 269 43 l 277 19 q 276 8 279 14 q 268 1 273 3 q 257 2 262 -1 q 250 10 252 5 l 245 26 q 240 40 243 33 q 235 55 238 47 q 194 40 216 45 q 147 35 173 34 l 146 35 l 145 35 q 109 40 125 35 q 79 58 92 46 q 58 87 65 69 q 50 129 50 105 l 50 130 l 50 131 q 61 180 51 157 q 89 223 72 203 q 127 260 106 243 q 172 294 149 277 q 164 353 166 326 q 167 399 162 380 q 179 430 171 417 q 197 452 186 443 q 222 468 208 463 q 250 473 237 473 q 258 473 254 473 q 265 471 262 473 q 301 453 287 467 q 313 435 309 446 q 317 413 317 425 q 317 407 317 410 q 316 400 317 404 q 302 367 313 382 q 277 338 292 352 q 243 310 262 323 q 205 282 224 296 l 203 280 q 225 189 212 236 q 251 100 238 141 q 258 105 254 102 q 264 111 261 108 q 309 162 288 134 q 347 222 329 191 q 356 229 351 227 q 367 227 361 230 m 195 393 q 192 358 191 378 q 197 311 193 337 q 257 358 231 335 q 288 406 283 381 q 288 413 288 408 q 281 433 288 425 q 260 444 273 440 q 250 444 257 444 q 216 431 233 444 q 203 415 209 424 q 195 393 198 406 m 147 63 q 190 68 170 63 q 227 83 209 73 q 200 170 214 123 q 178 262 187 217 q 141 234 159 248 q 109 203 123 219 q 87 169 96 186 q 79 131 79 151 l 79 129 q 84 99 79 111 q 98 79 89 87 q 146 63 116 63 l 147 63 "},"'":{"ha":142,"x_min":99,"x_max":166,"o":"m 140 467 q 160 454 155 467 q 163 426 166 441 q 148 399 160 411 q 114 388 136 387 q 102 390 105 389 q 99 395 100 392 q 101 399 99 398 q 109 399 103 400 q 126 402 119 397 q 136 417 133 408 q 137 420 137 420 q 135 421 137 420 q 122 429 127 423 q 117 444 117 435 q 124 460 117 453 q 140 467 131 467 "},"(":{"ha":198,"x_min":33,"x_max":315,"o":"m 314 561 q 312 551 315 555 q 302 545 308 546 q 234 513 261 536 q 210 487 220 501 q 191 455 199 472 q 177 426 185 444 q 161 383 170 407 q 143 332 153 359 q 125 275 134 304 q 106 214 115 245 q 89 156 97 183 q 76 106 81 128 q 67 68 70 83 l 67 68 q 66 65 66 66 q 66 62 66 64 q 62 29 63 46 q 65 -1 62 12 q 75 -21 68 -13 q 93 -31 81 -28 l 94 -31 q 103 -37 100 -33 q 106 -48 107 -42 q 100 -57 104 -54 q 89 -60 95 -61 l 87 -59 q 54 -41 66 -55 q 37 -8 42 -28 q 34 29 33 9 q 37 66 34 48 l 38 66 l 39 73 q 47 112 41 88 q 61 163 53 135 q 78 222 69 191 q 98 284 87 253 q 117 341 107 313 q 135 394 126 370 q 151 437 144 418 q 165 468 159 456 q 187 505 174 488 q 215 535 199 522 q 297 572 249 564 q 308 570 303 574 q 314 561 313 567 "},")":{"ha":293,"x_min":-15,"x_max":267,"o":"m -14 -48 q -11 -38 -15 -43 q -2 -32 -7 -33 q 66 0 39 -24 q 91 26 80 12 q 110 58 102 41 q 123 87 115 68 q 139 130 130 106 q 157 181 148 153 q 176 237 166 209 q 194 299 185 268 q 211 357 203 330 q 225 407 219 385 q 233 444 231 429 l 233 445 q 234 448 234 446 q 235 451 234 449 q 238 484 237 467 q 235 514 239 500 q 226 533 233 526 q 208 544 219 541 l 206 544 q 197 550 201 545 q 195 561 193 555 q 201 570 196 566 q 212 572 205 574 l 213 572 q 247 554 235 568 q 263 521 258 541 q 267 484 267 503 q 263 446 267 465 l 262 446 l 262 439 q 253 401 259 424 q 239 350 248 378 q 222 291 231 322 q 203 229 213 260 q 184 171 193 199 q 165 119 174 143 q 149 75 157 94 q 136 45 142 56 q 114 8 126 25 q 85 -22 101 -9 q 3 -60 52 -51 q -7 -58 -3 -61 q -14 -48 -12 -54 "},"*":{"ha":198,"x_min":30,"x_max":172,"o":"m 159 438 q 168 433 164 437 q 172 423 172 429 q 167 413 172 417 q 157 410 163 409 l 135 411 l 149 395 q 153 384 153 390 q 148 374 153 378 q 138 371 144 370 q 128 376 132 371 l 113 392 l 112 370 q 107 360 112 364 q 97 357 103 356 q 87 361 91 357 q 83 372 83 366 l 85 393 l 68 379 q 58 375 64 375 q 48 380 52 376 q 44 391 44 385 q 50 401 45 397 l 66 415 l 44 416 q 34 421 38 417 q 31 431 30 426 q 36 441 31 437 q 45 445 40 446 l 68 444 l 53 460 q 49 471 49 465 q 54 480 50 477 q 65 484 59 484 q 75 479 71 484 l 89 463 l 90 485 q 95 494 91 490 q 105 498 100 498 q 115 493 111 498 q 119 483 119 489 l 117 461 l 134 475 q 144 479 138 479 q 154 474 151 479 q 158 464 158 470 q 153 454 157 458 l 136 439 l 159 438 l 159 438 "},"+":{"ha":239,"x_min":24,"x_max":204,"o":"m 192 221 q 201 217 197 221 q 204 207 204 213 q 201 197 204 201 q 192 193 197 193 l 124 193 l 100 129 q 94 122 99 124 q 83 122 88 120 q 75 129 77 124 q 74 139 72 134 l 94 193 l 36 193 q 27 197 31 193 q 24 207 24 201 q 27 217 24 213 q 36 221 31 221 l 104 221 l 127 285 q 134 292 129 290 q 145 292 140 294 q 153 285 151 290 q 155 275 156 280 l 134 221 l 192 221 l 192 221 "},",":{"ha":125,"x_min":28,"x_max":95,"o":"m 69 41 q 89 28 83 41 q 92 0 95 16 q 76 -27 89 -15 q 43 -38 64 -39 q 31 -36 33 -37 q 28 -31 28 -34 q 30 -27 28 -28 q 38 -28 32 -26 q 55 -24 48 -30 q 64 -9 62 -18 q 66 -6 66 -6 q 63 -5 66 -5 q 51 3 56 -3 q 45 18 45 9 q 53 34 45 27 q 69 41 60 41 "},"-":{"ha":251,"x_min":20,"x_max":200,"o":"m 188 220 q 197 216 193 220 q 200 205 200 212 q 197 196 200 200 q 188 191 193 191 l 32 191 q 23 196 26 191 q 20 205 20 200 q 23 216 20 212 q 32 220 26 220 l 188 220 l 188 220 "},"/":{"ha":141,"x_min":-7,"x_max":218,"o":"m 207 497 q 215 490 212 495 q 216 479 218 484 l 22 -73 q 14 -81 20 -79 q 3 -82 9 -84 q -4 -75 -2 -80 q -5 -64 -7 -69 l 189 488 q 196 496 191 494 q 207 497 201 499 "},":":{"ha":180,"x_min":70,"x_max":142,"o":"m 93 179 q 110 172 102 179 q 117 155 117 165 q 110 139 117 146 q 93 132 102 132 q 77 139 83 132 q 70 155 70 146 q 77 172 70 165 q 93 179 83 179 m 119 278 q 135 271 128 278 q 142 254 142 264 q 135 238 142 245 q 119 231 128 231 q 102 238 109 231 q 96 254 96 245 q 102 271 96 264 q 119 278 109 278 "},".":{"ha":119,"x_min":38,"x_max":85,"o":"m 61 41 q 78 34 71 41 q 85 18 85 27 q 78 1 85 8 q 61 -5 71 -5 q 45 1 52 -5 q 38 18 38 8 q 45 34 38 27 q 61 41 52 41 "},";":{"ha":173,"x_min":52,"x_max":142,"o":"m 119 278 q 135 271 128 278 q 142 254 142 264 q 135 238 142 245 q 119 231 128 231 q 102 238 109 231 q 96 254 96 245 q 102 271 96 264 q 119 278 109 278 m 94 180 q 114 167 108 180 q 116 139 119 154 q 101 111 113 123 q 67 100 88 99 q 55 103 58 101 q 52 108 52 104 q 54 111 52 111 q 62 111 56 112 q 79 114 73 109 q 89 130 86 120 q 90 133 90 132 q 87 134 90 133 q 75 142 80 136 q 70 156 70 148 q 77 173 70 165 q 94 180 84 180 "},"<":{"ha":332,"x_min":58,"x_max":310,"o":"m 308 292 q 308 281 310 286 q 300 273 305 275 l 111 203 l 252 140 q 260 132 258 138 q 260 121 262 126 q 252 113 257 115 q 241 114 246 111 l 68 191 q 60 199 62 193 q 60 210 58 204 q 68 217 63 215 l 290 300 q 300 300 295 302 q 308 292 306 297 "},">":{"ha":336,"x_min":58,"x_max":310,"o":"m 60 122 q 60 133 58 127 q 68 140 62 138 l 256 211 l 115 274 q 107 282 110 276 q 108 293 105 288 q 116 300 111 298 q 127 300 121 302 l 300 223 q 308 215 306 220 q 307 204 310 210 q 299 197 304 199 l 78 113 q 67 114 73 111 q 60 122 62 117 "},"?":{"ha":320,"x_min":88,"x_max":351,"o":"m 349 386 q 341 330 351 354 q 315 288 332 307 q 277 254 298 269 q 235 225 256 239 q 208 207 221 216 q 184 189 194 198 q 151 146 164 171 l 151 146 q 139 117 144 132 q 132 81 134 101 q 126 72 131 75 q 116 68 122 68 q 106 74 111 69 q 104 84 102 79 q 112 125 106 106 q 125 159 117 143 l 125 159 q 143 187 133 175 q 164 210 153 199 q 190 231 176 221 q 220 250 204 240 q 257 275 238 262 q 290 303 275 288 q 313 339 304 319 q 320 385 321 359 q 311 419 319 403 q 289 447 303 435 q 256 465 275 458 q 212 471 236 471 q 185 467 198 471 q 138 432 155 457 q 124 405 129 420 q 120 373 119 390 q 121 357 120 366 q 125 340 122 349 q 124 329 127 334 q 116 322 121 323 q 105 323 111 320 q 98 331 100 326 q 93 352 94 342 q 91 373 92 363 q 97 414 91 395 q 115 449 103 433 q 176 494 138 481 q 212 499 195 499 q 266 492 241 500 q 307 469 290 484 q 337 432 326 454 q 349 386 348 410 m 111 32 q 127 27 120 33 q 136 11 135 20 q 131 -6 137 1 q 115 -14 124 -14 q 98 -9 105 -16 q 90 7 91 -3 q 95 24 88 16 q 111 32 101 31 "},"@":{"ha":493,"x_min":76,"x_max":468,"o":"m 468 245 q 463 201 468 223 q 448 155 458 178 q 425 109 439 128 q 395 77 411 90 q 354 56 376 61 q 315 54 333 50 q 287 71 296 59 q 280 88 282 79 q 254 64 268 73 q 222 55 239 55 q 189 73 199 56 q 181 92 183 81 q 179 115 179 102 q 182 139 179 125 q 190 171 185 154 q 202 205 195 188 q 218 237 210 222 q 250 276 232 260 q 290 292 268 291 l 290 292 l 294 292 q 331 273 316 290 q 332 272 332 273 q 333 271 332 271 q 336 277 334 274 q 338 284 337 281 q 346 292 340 290 q 357 292 351 294 q 365 285 362 290 q 365 274 367 279 q 354 247 361 264 q 340 210 348 229 q 331 183 336 196 q 323 161 327 171 q 317 141 320 151 q 312 124 314 132 q 308 100 308 109 q 310 88 308 92 q 321 83 313 85 q 348 83 334 79 q 378 99 363 87 q 402 126 391 110 q 421 165 414 142 q 422 167 422 165 q 435 206 431 186 q 439 245 439 226 q 423 304 438 279 q 378 343 408 330 q 311 355 349 355 q 239 338 273 354 q 177 295 205 322 q 130 231 149 267 q 106 155 111 195 q 105 144 106 149 q 105 133 105 138 q 113 78 104 101 q 137 38 121 54 q 173 13 153 22 q 216 1 193 3 q 224 0 220 0 q 233 0 229 0 q 252 1 242 0 q 271 3 262 1 q 291 8 281 5 q 311 14 301 11 q 321 14 316 16 q 329 6 327 12 q 329 -5 331 1 q 321 -12 326 -10 q 299 -20 309 -16 q 277 -25 288 -23 q 233 -28 253 -29 q 223 -28 227 -28 q 214 -28 218 -28 q 160 -13 185 -24 q 116 18 135 -2 q 86 67 97 38 q 77 134 76 96 q 77 146 77 140 q 78 158 77 152 q 104 243 83 203 q 157 315 125 284 q 228 364 189 346 q 311 383 268 382 q 389 370 356 384 q 448 319 427 353 q 468 245 467 286 m 306 202 q 311 216 309 210 q 317 229 314 223 l 317 231 q 315 245 317 239 q 309 255 313 251 l 309 255 q 292 263 302 262 l 290 263 q 265 252 277 263 q 243 222 253 240 q 228 194 235 209 q 217 163 222 178 q 210 136 213 149 q 208 114 208 123 q 212 89 208 96 q 222 84 216 84 q 248 95 236 83 q 270 124 260 106 q 290 163 281 142 q 306 201 298 184 l 306 202 "},"=":{"ha":273,"x_min":24,"x_max":237,"o":"m 224 265 q 233 261 230 265 q 237 250 237 256 q 233 240 237 245 q 224 236 230 236 l 68 236 q 60 240 63 236 q 56 250 56 245 q 60 261 56 256 q 68 265 63 265 l 224 265 m 192 175 q 201 171 197 175 q 204 161 204 167 q 201 151 204 155 q 192 146 197 146 l 36 146 q 27 151 31 146 q 24 161 24 155 q 27 171 24 167 q 36 175 31 175 l 192 175 "},"[":{"ha":267,"x_min":27,"x_max":363,"o":"m 41 -48 q 31 -44 35 -48 q 27 -34 27 -39 q 28 -28 27 -31 l 235 537 q 240 544 236 542 q 248 547 244 547 l 349 547 q 359 543 355 547 q 363 532 363 538 q 359 522 363 526 q 349 518 355 518 l 258 518 l 62 -19 l 138 -19 q 148 -23 144 -19 q 152 -34 152 -28 q 148 -44 152 -39 q 138 -48 144 -48 l 41 -48 "},"]":{"ha":356,"x_min":3,"x_max":338,"o":"m 324 547 q 334 542 330 547 q 338 532 338 538 q 337 526 338 529 l 131 -39 q 125 -46 130 -43 q 117 -48 121 -48 l 17 -48 q 7 -44 11 -48 q 3 -34 3 -40 q 7 -24 3 -28 q 17 -20 11 -20 l 107 -20 l 304 517 l 228 517 q 218 522 222 517 q 214 532 214 526 q 218 542 214 538 q 228 547 222 547 l 324 547 "},"^":{"ha":251,"x_min":31,"x_max":229,"o":"m 227 277 q 225 267 229 271 q 215 260 221 262 q 204 263 209 260 q 199 273 200 267 l 177 426 l 58 264 q 48 258 54 259 q 38 261 43 258 q 32 270 33 264 q 35 281 31 276 l 175 471 q 184 477 178 476 q 195 475 190 478 q 201 465 199 471 l 227 277 l 227 277 "},"_":{"ha":309,"x_min":26,"x_max":288,"o":"m 269 -3 q 282 -7 277 -3 q 288 -18 288 -12 q 282 -28 288 -24 q 269 -32 277 -32 l 44 -32 q 31 -28 37 -32 q 26 -18 26 -24 q 31 -7 26 -12 q 44 -3 37 -3 l 269 -3 l 269 -3 "},"`":{"ha":125,"x_min":17,"x_max":105,"o":"m 102 406 q 103 395 105 400 q 96 386 102 389 q 85 384 91 382 q 77 391 80 386 l 20 489 q 18 500 17 494 q 25 509 20 505 q 36 510 31 512 q 45 503 41 509 l 102 406 l 102 406 "},"{":{"ha":248,"x_min":0,"x_max":342,"o":"m 328 572 q 338 567 334 572 q 342 557 342 563 q 337 547 342 551 q 327 544 333 543 q 266 533 290 545 q 227 500 242 522 q 201 453 211 479 q 183 398 191 426 q 159 327 172 361 q 121 269 146 292 q 125 262 123 265 l 125 262 q 134 208 137 241 q 104 125 132 174 q 97 112 100 118 q 90 99 93 105 q 65 55 76 76 q 52 18 55 35 q 64 -11 50 1 q 118 -28 78 -23 q 127 -34 123 -29 q 130 -45 132 -39 q 125 -54 130 -50 q 114 -57 120 -58 q 68 -46 86 -53 q 39 -28 50 -39 q 26 -6 29 -18 q 24 22 22 7 q 39 66 27 43 q 65 114 51 89 q 72 126 68 120 q 79 139 76 133 q 105 207 102 180 q 100 248 109 233 l 100 248 q 99 251 99 250 q 97 253 98 252 q 35 238 72 239 l 34 238 l 33 238 q 12 243 20 238 q 0 267 0 252 l 0 267 q 9 286 0 279 q 33 297 18 294 q 56 299 43 300 q 81 296 68 299 q 98 289 91 292 q 134 340 121 309 q 156 406 146 372 q 176 469 165 438 q 206 524 187 500 q 254 561 224 547 q 328 572 283 574 m 34 267 q 61 270 47 267 q 50 271 56 271 q 39 269 44 271 q 35 268 37 269 q 32 268 33 268 q 28 267 30 267 q 33 267 29 267 l 34 267 "},"}":{"ha":353,"x_min":0,"x_max":342,"o":"m 14 -52 q 4 -47 8 -52 q 1 -37 0 -43 q 5 -27 1 -31 q 16 -24 9 -23 q 77 -13 53 -25 q 116 20 100 -1 q 141 67 132 41 q 159 122 151 94 q 183 194 170 159 q 222 251 197 228 q 218 258 219 255 l 217 258 q 209 282 211 269 q 208 312 206 295 q 217 350 210 329 q 238 395 224 370 q 246 409 242 402 q 253 421 250 415 q 277 465 267 444 q 290 502 288 486 q 278 531 292 519 q 224 549 264 543 q 215 554 219 549 q 212 565 211 559 q 218 574 213 570 q 229 577 222 578 q 275 566 256 573 q 303 549 293 559 q 317 526 313 538 q 318 498 320 513 q 303 454 315 477 q 277 406 292 431 q 270 394 274 400 q 263 381 267 387 q 237 314 240 340 q 242 273 234 288 l 242 272 q 244 270 243 271 q 245 267 244 269 q 308 282 271 281 l 309 282 l 309 282 q 331 277 323 282 q 342 254 342 269 l 342 253 q 333 234 342 241 q 310 223 324 227 q 287 221 299 220 q 262 224 274 221 q 245 231 252 228 q 209 180 221 212 q 186 114 197 149 q 166 51 177 82 q 137 -3 155 20 q 89 -41 118 -27 q 14 -52 60 -54 m 309 254 q 281 250 295 254 q 293 249 287 249 q 303 251 298 250 q 307 252 305 252 q 311 252 309 252 q 314 253 313 252 q 309 254 313 254 l 309 254 "},"~":{"ha":320,"x_min":25,"x_max":298,"o":"m 295 284 q 297 274 298 279 q 291 264 296 268 q 246 244 267 250 q 204 238 224 238 q 166 243 184 239 q 130 252 147 247 q 85 261 106 259 q 50 247 65 263 q 40 242 46 242 q 30 245 34 242 q 25 256 25 250 q 28 266 25 262 q 53 284 41 279 q 80 290 66 290 q 108 287 94 290 q 138 279 123 283 q 169 272 153 275 q 202 268 185 268 q 238 272 220 267 q 275 289 256 277 q 286 291 280 292 q 295 284 292 290 "},"|":{"ha":188,"x_min":92,"x_max":122,"o":"m 107 550 q 118 547 113 550 q 122 538 122 543 l 122 -45 q 118 -54 122 -51 q 107 -58 113 -58 q 97 -54 101 -58 q 92 -45 92 -51 l 92 538 q 97 547 92 543 q 107 550 101 550 "},"r":{"ha":250,"x_min":-1,"x_max":290,"o":"m 280 161 q 288 153 286 159 q 288 142 290 148 l 287 140 q 266 94 277 119 q 239 49 254 70 q 205 14 224 28 q 163 0 186 0 l 163 0 q 140 5 149 0 q 124 20 130 11 q 117 37 119 28 q 115 57 115 47 l 115 59 q 122 101 115 75 q 129 127 125 113 q 138 155 133 140 q 146 177 143 168 q 151 193 149 186 q 156 210 154 202 q 163 228 159 217 l 152 231 q 121 242 137 237 q 89 255 104 248 q 85 246 87 250 q 82 238 83 241 l 82 237 l 27 119 q 19 111 24 113 q 8 112 14 109 q 1 120 3 115 q 1 131 -1 125 l 56 249 l 64 269 q 37 296 47 281 q 29 333 27 311 q 42 359 31 348 q 43 359 42 359 q 71 370 55 370 q 82 369 75 370 l 83 368 q 96 361 90 366 q 104 351 101 357 q 110 326 110 340 q 106 305 110 317 q 103 294 105 300 q 99 282 101 288 q 130 269 113 275 q 161 258 146 264 q 186 250 176 254 q 194 242 192 248 q 195 231 197 237 l 195 231 q 185 205 189 215 q 178 184 182 195 q 173 167 176 176 q 165 146 170 158 q 157 119 161 132 q 150 94 153 106 q 145 74 146 83 q 143 58 144 65 l 143 57 q 144 45 143 51 q 149 35 145 39 q 154 30 151 32 q 163 28 157 28 q 194 41 180 28 q 220 71 208 53 q 242 111 232 90 q 260 152 252 133 l 261 154 q 269 162 264 159 q 280 161 275 164 m 79 314 q 81 326 81 320 q 79 337 81 333 q 75 341 77 340 l 74 341 q 72 341 73 341 q 71 342 72 342 q 62 338 66 342 l 62 338 q 58 330 59 336 q 61 312 56 320 q 74 298 66 304 q 77 306 75 302 q 79 314 78 310 "},"a":{"ha":273,"x_min":-3,"x_max":314,"o":"m 304 161 q 312 153 309 159 q 311 142 314 148 l 311 140 q 289 94 301 119 q 262 49 277 70 q 229 14 247 28 q 187 0 210 0 l 186 0 q 163 5 173 0 q 148 20 154 11 q 140 37 142 28 q 138 57 138 47 l 138 58 q 99 17 121 33 q 52 1 78 1 q 10 24 24 2 q 0 48 3 35 q -2 79 -3 62 q 2 113 -2 93 q 13 157 6 134 q 30 203 20 180 q 52 248 40 227 q 95 300 71 279 q 148 322 119 321 l 154 322 q 179 315 168 321 q 201 298 191 309 q 210 285 205 292 q 216 301 213 294 q 221 315 218 309 q 229 323 223 321 q 239 323 234 326 q 247 316 245 321 q 248 305 250 311 q 233 266 242 290 q 214 214 224 242 q 200 178 207 195 q 189 146 194 160 q 174 94 178 116 q 169 74 170 83 q 167 58 167 65 l 167 57 q 168 45 167 51 q 172 35 169 39 q 187 28 176 28 q 217 41 203 28 q 243 71 231 53 q 266 111 255 90 q 284 152 276 133 l 285 154 q 293 162 288 159 q 304 161 298 164 m 53 30 q 91 46 73 29 q 124 88 109 62 q 152 143 140 113 q 175 199 165 174 q 183 220 180 210 q 191 238 187 230 q 191 243 191 240 q 179 279 190 267 q 152 293 168 292 q 148 294 151 294 q 110 276 128 293 q 77 233 92 259 q 56 192 65 214 q 40 149 47 170 q 30 110 34 128 q 26 78 26 91 q 34 40 26 52 q 53 30 40 31 "},"b":{"ha":259,"x_min":-13,"x_max":300,"o":"m 290 161 q 297 154 295 159 q 297 143 300 149 q 294 136 296 140 q 292 130 293 133 q 289 124 290 127 q 286 118 287 121 q 271 92 279 104 q 252 68 262 79 q 225 50 240 57 q 192 43 211 43 q 173 45 182 43 q 144 62 155 51 q 97 15 123 34 q 41 -2 72 -3 l 41 -2 l 39 -2 l 39 -2 q 13 4 23 -1 q -3 18 3 9 q -11 39 -9 27 q -12 63 -13 50 q -4 108 -11 85 q 9 146 3 131 l 12 154 l 12 155 q 40 237 25 195 q 69 321 54 279 l 85 365 q 87 371 85 367 q 90 379 88 374 q 97 401 93 389 q 104 425 100 413 q 112 433 106 430 q 123 433 117 435 q 131 426 128 431 q 132 415 134 420 q 124 392 127 404 q 117 371 120 380 q 114 362 115 366 q 112 355 113 358 l 96 312 l 88 289 q 120 314 103 304 q 156 322 136 323 q 199 299 185 321 q 208 275 205 289 q 211 245 211 261 l 210 241 l 210 241 q 206 209 210 227 q 196 171 202 191 q 181 131 190 151 q 162 92 173 111 q 161 89 161 90 q 159 87 161 88 q 180 73 167 78 q 186 72 184 73 q 192 72 189 72 q 214 77 205 72 q 232 89 224 81 q 248 109 241 98 q 260 131 254 119 q 263 136 262 134 q 265 142 264 138 q 268 148 267 144 q 271 154 269 151 q 279 162 273 159 q 290 161 284 164 m 144 162 q 152 156 149 161 q 154 144 155 151 q 152 138 153 141 q 151 133 152 136 q 173 192 165 163 q 182 242 180 221 l 182 243 l 182 245 l 182 246 q 181 268 182 258 q 175 283 179 277 q 155 294 169 293 q 116 277 134 294 q 83 234 98 260 q 54 177 67 208 q 31 121 41 147 l 26 110 q 20 86 23 98 q 16 62 18 73 q 20 37 16 47 q 40 26 25 27 l 41 26 l 41 26 l 42 26 q 87 43 66 26 q 127 88 109 61 q 121 119 121 102 q 126 152 121 136 q 133 161 127 158 q 144 162 138 163 "}}}
